<mxfile host="app.diagrams.net" agent="Mozilla/5.0 (X11; Linux x86_64) AppleWebKit/537.36 (KHTML, like Gecko) Chrome/139.0.0.0 Safari/537.36 SberBrowser/31.0.0.0" version="28.2.3">
  <diagram name="Страница — 1" id="YzAyhXTebkGU_6SpY-bU">
    <mxGraphModel dx="1372" dy="742" grid="1" gridSize="10" guides="1" tooltips="1" connect="1" arrows="1" fold="1" page="1" pageScale="1" pageWidth="3300" pageHeight="4681" math="0" shadow="0">
      <root>
        <mxCell id="0" />
        <mxCell id="1" parent="0" />
        <UserObject label="&lt;div style=&quot;color: #f8f8f2;background-color: #272822;font-family: Consolas, &#39;Courier New&#39;, monospace;font-weight: normal;font-size: 14px;line-height: 19px;white-space: pre;&quot;&gt;&lt;div&gt;&lt;span style=&quot;color: #e6db74;&quot;&gt;&quot;&quot;&quot;&lt;/span&gt;&lt;/div&gt;&lt;div&gt;&lt;span style=&quot;color: #e6db74;&quot;&gt;Простой скрипт для проверки подключения и авторизации к GigaChat.&lt;/span&gt;&lt;/div&gt;&lt;br&gt;&lt;div&gt;&lt;span style=&quot;color: #e6db74;&quot;&gt;Использует конфигурацию проекта (`aigw_service.config.APP_CONFIG`) и&lt;/span&gt;&lt;/div&gt;&lt;div&gt;&lt;span style=&quot;color: #e6db74;&quot;&gt;инициирует запрос к API GigaChat для форсирования авторизации (OAuth к NGW)&lt;/span&gt;&lt;/div&gt;&lt;div&gt;&lt;span style=&quot;color: #e6db74;&quot;&gt;при использовании `GIGACHAT_CREDENTIALS`.&lt;/span&gt;&lt;/div&gt;&lt;br&gt;&lt;div&gt;&lt;span style=&quot;color: #e6db74;&quot;&gt;Запуск:&lt;/span&gt;&lt;/div&gt;&lt;div&gt;&lt;span style=&quot;color: #e6db74;&quot;&gt;&amp;nbsp; &amp;nbsp; poetry run python examples/gigachat_connect_test.py&lt;/span&gt;&lt;/div&gt;&lt;br&gt;&lt;div&gt;&lt;span style=&quot;color: #e6db74;&quot;&gt;Переменные окружения (в .env):&lt;/span&gt;&lt;/div&gt;&lt;div&gt;&lt;span style=&quot;color: #e6db74;&quot;&gt;&amp;nbsp; &amp;nbsp; LOCAL=True&lt;/span&gt;&lt;/div&gt;&lt;div&gt;&lt;span style=&quot;color: #e6db74;&quot;&gt;&amp;nbsp; &amp;nbsp; GIGACHAT_HOST=gigachat.devices.sberbank.ru&lt;/span&gt;&lt;/div&gt;&lt;div&gt;&lt;span style=&quot;color: #e6db74;&quot;&gt;&amp;nbsp; &amp;nbsp; GIGACHAT_PORT=443&lt;/span&gt;&lt;/div&gt;&lt;div&gt;&lt;span style=&quot;color: #e6db74;&quot;&gt;&amp;nbsp; &amp;nbsp; GIGACHAT_ENDPOINT=/api/v1&lt;/span&gt;&lt;/div&gt;&lt;div&gt;&lt;span style=&quot;color: #e6db74;&quot;&gt;&amp;nbsp; &amp;nbsp; GIGACHAT_CREDENTIALS=... (base64 client_id:client_secret)&lt;/span&gt;&lt;/div&gt;&lt;div&gt;&lt;span style=&quot;color: #e6db74;&quot;&gt;&amp;nbsp; &amp;nbsp; GIGACHAT_SCOPE=GIGACHAT_API_CORP (или ваш)&lt;/span&gt;&lt;/div&gt;&lt;div&gt;&lt;span style=&quot;color: #e6db74;&quot;&gt;&amp;nbsp; &amp;nbsp; [опц.] GIGACHAT_ACCESS_TOKEN= (оставьте пустым, чтобы проверить OAuth)&lt;/span&gt;&lt;/div&gt;&lt;div&gt;&lt;span style=&quot;color: #e6db74;&quot;&gt;&amp;nbsp; &amp;nbsp; [опц.] GIGACHAT_OAUTH_URL=https://ngw.devices.sberbank.ru:9443/api/v2/oauth&lt;/span&gt;&lt;/div&gt;&lt;div&gt;&lt;span style=&quot;color: #e6db74;&quot;&gt;&quot;&quot;&quot;&lt;/span&gt;&lt;/div&gt;&lt;br&gt;&lt;div&gt;&lt;span style=&quot;color: #f92672;&quot;&gt;import&lt;/span&gt;&lt;span style=&quot;color: #f8f8f2;&quot;&gt; os&lt;/span&gt;&lt;/div&gt;&lt;div&gt;&lt;span style=&quot;color: #f92672;&quot;&gt;import&lt;/span&gt;&lt;span style=&quot;color: #f8f8f2;&quot;&gt; sys&lt;/span&gt;&lt;/div&gt;&lt;div&gt;&lt;span style=&quot;color: #f92672;&quot;&gt;from&lt;/span&gt;&lt;span style=&quot;color: #f8f8f2;&quot;&gt; typing &lt;/span&gt;&lt;span style=&quot;color: #f92672;&quot;&gt;import&lt;/span&gt;&lt;span style=&quot;color: #f8f8f2;&quot;&gt; Any, Dict&lt;/span&gt;&lt;/div&gt;&lt;br&gt;&lt;div&gt;&lt;span style=&quot;color: #f92672;&quot;&gt;from&lt;/span&gt;&lt;span style=&quot;color: #f8f8f2;&quot;&gt; dotenv &lt;/span&gt;&lt;span style=&quot;color: #f92672;&quot;&gt;import&lt;/span&gt;&lt;span style=&quot;color: #f8f8f2;&quot;&gt; load_dotenv&lt;/span&gt;&lt;/div&gt;&lt;br&gt;&lt;br&gt;&lt;div&gt;&lt;span style=&quot;color: #66d9ef;font-style: italic;&quot;&gt;def&lt;/span&gt;&lt;span style=&quot;color: #f8f8f2;&quot;&gt; &lt;/span&gt;&lt;span style=&quot;color: #a6e22e;&quot;&gt;main&lt;/span&gt;&lt;span style=&quot;color: #f8f8f2;&quot;&gt;() -&amp;gt; &lt;/span&gt;&lt;span style=&quot;color: #66d9ef;font-style: italic;&quot;&gt;int&lt;/span&gt;&lt;span style=&quot;color: #f8f8f2;&quot;&gt;:&lt;/span&gt;&lt;/div&gt;&lt;div&gt;&lt;span style=&quot;color: #f8f8f2;&quot;&gt;&amp;nbsp; &amp;nbsp; &lt;/span&gt;&lt;span style=&quot;color: #88846f;&quot;&gt;# Загружаем .env из корня проекта&lt;/span&gt;&lt;/div&gt;&lt;div&gt;&lt;span style=&quot;color: #f8f8f2;&quot;&gt;&amp;nbsp; &amp;nbsp; project_root &lt;/span&gt;&lt;span style=&quot;color: #f92672;&quot;&gt;=&lt;/span&gt;&lt;span style=&quot;color: #f8f8f2;&quot;&gt; os.path.abspath(os.path.join(os.path.dirname(__file__), os.pardir))&lt;/span&gt;&lt;/div&gt;&lt;div&gt;&lt;span style=&quot;color: #f8f8f2;&quot;&gt;&amp;nbsp; &amp;nbsp; dotenv_path &lt;/span&gt;&lt;span style=&quot;color: #f92672;&quot;&gt;=&lt;/span&gt;&lt;span style=&quot;color: #f8f8f2;&quot;&gt; os.path.join(project_root, &lt;/span&gt;&lt;span style=&quot;color: #e6db74;&quot;&gt;&quot;.env&quot;&lt;/span&gt;&lt;span style=&quot;color: #f8f8f2;&quot;&gt;)&lt;/span&gt;&lt;/div&gt;&lt;div&gt;&lt;span style=&quot;color: #f8f8f2;&quot;&gt;&amp;nbsp; &amp;nbsp; load_dotenv(dotenv_path)&lt;/span&gt;&lt;/div&gt;&lt;br&gt;&lt;div&gt;&lt;span style=&quot;color: #f8f8f2;&quot;&gt;&amp;nbsp; &amp;nbsp; &lt;/span&gt;&lt;span style=&quot;color: #88846f;&quot;&gt;# Импортируем после загрузки .env, чтобы конфиг подтянул значения&lt;/span&gt;&lt;/div&gt;&lt;div&gt;&lt;span style=&quot;color: #f8f8f2;&quot;&gt;&amp;nbsp; &amp;nbsp; &lt;/span&gt;&lt;span style=&quot;color: #f92672;&quot;&gt;try&lt;/span&gt;&lt;span style=&quot;color: #f8f8f2;&quot;&gt;:&lt;/span&gt;&lt;/div&gt;&lt;div&gt;&lt;span style=&quot;color: #f8f8f2;&quot;&gt;&amp;nbsp; &amp;nbsp; &amp;nbsp; &amp;nbsp; &lt;/span&gt;&lt;span style=&quot;color: #f92672;&quot;&gt;from&lt;/span&gt;&lt;span style=&quot;color: #f8f8f2;&quot;&gt; aigw_service.config &lt;/span&gt;&lt;span style=&quot;color: #f92672;&quot;&gt;import&lt;/span&gt;&lt;span style=&quot;color: #f8f8f2;&quot;&gt; &lt;/span&gt;&lt;span style=&quot;color: #ae81ff;&quot;&gt;APP_CONFIG&lt;/span&gt;&lt;/div&gt;&lt;div&gt;&lt;span style=&quot;color: #f8f8f2;&quot;&gt;&amp;nbsp; &amp;nbsp; &lt;/span&gt;&lt;span style=&quot;color: #f92672;&quot;&gt;except&lt;/span&gt;&lt;span style=&quot;color: #f8f8f2;&quot;&gt; &lt;/span&gt;&lt;span style=&quot;color: #66d9ef;font-style: italic;&quot;&gt;Exception&lt;/span&gt;&lt;span style=&quot;color: #f8f8f2;&quot;&gt; &lt;/span&gt;&lt;span style=&quot;color: #f92672;&quot;&gt;as&lt;/span&gt;&lt;span style=&quot;color: #f8f8f2;&quot;&gt; e:&lt;/span&gt;&lt;/div&gt;&lt;div&gt;&lt;span style=&quot;color: #f8f8f2;&quot;&gt;&amp;nbsp; &amp;nbsp; &amp;nbsp; &amp;nbsp; &lt;/span&gt;&lt;span style=&quot;color: #66d9ef;&quot;&gt;print&lt;/span&gt;&lt;span style=&quot;color: #f8f8f2;&quot;&gt;(&lt;/span&gt;&lt;span style=&quot;color: #66d9ef;font-style: italic;&quot;&gt;f&lt;/span&gt;&lt;span style=&quot;color: #e6db74;&quot;&gt;&quot;[ERROR] Не удалось импортировать конфиг приложения: &lt;/span&gt;&lt;span style=&quot;color: #ae81ff;&quot;&gt;{&lt;/span&gt;&lt;span style=&quot;color: #f8f8f2;&quot;&gt;e&lt;/span&gt;&lt;span style=&quot;color: #ae81ff;&quot;&gt;}&lt;/span&gt;&lt;span style=&quot;color: #e6db74;&quot;&gt;&quot;&lt;/span&gt;&lt;span style=&quot;color: #f8f8f2;&quot;&gt;)&lt;/span&gt;&lt;/div&gt;&lt;div&gt;&lt;span style=&quot;color: #f8f8f2;&quot;&gt;&amp;nbsp; &amp;nbsp; &amp;nbsp; &amp;nbsp; &lt;/span&gt;&lt;span style=&quot;color: #f92672;&quot;&gt;return&lt;/span&gt;&lt;span style=&quot;color: #f8f8f2;&quot;&gt; &lt;/span&gt;&lt;span style=&quot;color: #ae81ff;&quot;&gt;1&lt;/span&gt;&lt;/div&gt;&lt;br&gt;&lt;div&gt;&lt;span style=&quot;color: #f8f8f2;&quot;&gt;&amp;nbsp; &amp;nbsp; &lt;/span&gt;&lt;span style=&quot;color: #88846f;&quot;&gt;# Базовые параметры клиента&lt;/span&gt;&lt;/div&gt;&lt;div&gt;&lt;span style=&quot;color: #f8f8f2;&quot;&gt;&amp;nbsp; &amp;nbsp; base_params: Dict[&lt;/span&gt;&lt;span style=&quot;color: #66d9ef;font-style: italic;&quot;&gt;str&lt;/span&gt;&lt;span style=&quot;color: #f8f8f2;&quot;&gt;, Any] &lt;/span&gt;&lt;span style=&quot;color: #f92672;&quot;&gt;=&lt;/span&gt;&lt;span style=&quot;color: #f8f8f2;&quot;&gt; &lt;/span&gt;&lt;span style=&quot;color: #66d9ef;font-style: italic;&quot;&gt;dict&lt;/span&gt;&lt;span style=&quot;color: #f8f8f2;&quot;&gt;(&lt;/span&gt;&lt;span style=&quot;color: #ae81ff;&quot;&gt;APP_CONFIG&lt;/span&gt;&lt;span style=&quot;color: #f8f8f2;&quot;&gt;.gigachat.base_params)&lt;/span&gt;&lt;/div&gt;&lt;br&gt;&lt;div&gt;&lt;span style=&quot;color: #f8f8f2;&quot;&gt;&amp;nbsp; &amp;nbsp; &lt;/span&gt;&lt;span style=&quot;color: #88846f;&quot;&gt;# Поддержка кастомного OAuth URL, если клиент принимает этот параметр&lt;/span&gt;&lt;/div&gt;&lt;div&gt;&lt;span style=&quot;color: #f8f8f2;&quot;&gt;&amp;nbsp; &amp;nbsp; oauth_url &lt;/span&gt;&lt;span style=&quot;color: #f92672;&quot;&gt;=&lt;/span&gt;&lt;span style=&quot;color: #f8f8f2;&quot;&gt; os.getenv(&lt;/span&gt;&lt;span style=&quot;color: #e6db74;&quot;&gt;&quot;GIGACHAT_OAUTH_URL&quot;&lt;/span&gt;&lt;span style=&quot;color: #f8f8f2;&quot;&gt;, &lt;/span&gt;&lt;span style=&quot;color: #e6db74;&quot;&gt;&quot;&quot;&lt;/span&gt;&lt;span style=&quot;color: #f8f8f2;&quot;&gt;)&lt;/span&gt;&lt;/div&gt;&lt;div&gt;&lt;span style=&quot;color: #f8f8f2;&quot;&gt;&amp;nbsp; &amp;nbsp; &lt;/span&gt;&lt;span style=&quot;color: #f92672;&quot;&gt;if&lt;/span&gt;&lt;span style=&quot;color: #f8f8f2;&quot;&gt; oauth_url:&lt;/span&gt;&lt;/div&gt;&lt;div&gt;&lt;span style=&quot;color: #f8f8f2;&quot;&gt;&amp;nbsp; &amp;nbsp; &amp;nbsp; &amp;nbsp; &lt;/span&gt;&lt;span style=&quot;color: #88846f;&quot;&gt;# Часто параметр называется oauth_url в langchain-gigachat&lt;/span&gt;&lt;/div&gt;&lt;div&gt;&lt;span style=&quot;color: #f8f8f2;&quot;&gt;&amp;nbsp; &amp;nbsp; &amp;nbsp; &amp;nbsp; base_params.setdefault(&lt;/span&gt;&lt;span style=&quot;color: #e6db74;&quot;&gt;&quot;oauth_url&quot;&lt;/span&gt;&lt;span style=&quot;color: #f8f8f2;&quot;&gt;, oauth_url)&lt;/span&gt;&lt;/div&gt;&lt;br&gt;&lt;div&gt;&lt;span style=&quot;color: #f8f8f2;&quot;&gt;&amp;nbsp; &amp;nbsp; &lt;/span&gt;&lt;span style=&quot;color: #88846f;&quot;&gt;# Явно уменьшим таймаут для теста&lt;/span&gt;&lt;/div&gt;&lt;div&gt;&lt;span style=&quot;color: #f8f8f2;&quot;&gt;&amp;nbsp; &amp;nbsp; base_params.setdefault(&lt;/span&gt;&lt;span style=&quot;color: #e6db74;&quot;&gt;&quot;timeout&quot;&lt;/span&gt;&lt;span style=&quot;color: #f8f8f2;&quot;&gt;, &lt;/span&gt;&lt;span style=&quot;color: #ae81ff;&quot;&gt;30&lt;/span&gt;&lt;span style=&quot;color: #f8f8f2;&quot;&gt;)&lt;/span&gt;&lt;/div&gt;&lt;br&gt;&lt;div&gt;&lt;span style=&quot;color: #f8f8f2;&quot;&gt;&amp;nbsp; &amp;nbsp; &lt;/span&gt;&lt;span style=&quot;color: #88846f;&quot;&gt;# Отладочный вывод&lt;/span&gt;&lt;/div&gt;&lt;div&gt;&lt;span style=&quot;color: #f8f8f2;&quot;&gt;&amp;nbsp; &amp;nbsp; &lt;/span&gt;&lt;span style=&quot;color: #66d9ef;&quot;&gt;print&lt;/span&gt;&lt;span style=&quot;color: #f8f8f2;&quot;&gt;(&lt;/span&gt;&lt;span style=&quot;color: #e6db74;&quot;&gt;&quot;== GigaChat connection test ==&quot;&lt;/span&gt;&lt;span style=&quot;color: #f8f8f2;&quot;&gt;)&lt;/span&gt;&lt;/div&gt;&lt;div&gt;&lt;span style=&quot;color: #f8f8f2;&quot;&gt;&amp;nbsp; &amp;nbsp; &lt;/span&gt;&lt;span style=&quot;color: #66d9ef;&quot;&gt;print&lt;/span&gt;&lt;span style=&quot;color: #f8f8f2;&quot;&gt;(&lt;/span&gt;&lt;span style=&quot;color: #66d9ef;font-style: italic;&quot;&gt;f&lt;/span&gt;&lt;span style=&quot;color: #e6db74;&quot;&gt;&quot;Base URL: &lt;/span&gt;&lt;span style=&quot;color: #ae81ff;&quot;&gt;{APP_CONFIG&lt;/span&gt;&lt;span style=&quot;color: #f8f8f2;&quot;&gt;.gigachat.gigachat_base_url&lt;/span&gt;&lt;span style=&quot;color: #ae81ff;&quot;&gt;}&lt;/span&gt;&lt;span style=&quot;color: #e6db74;&quot;&gt;&quot;&lt;/span&gt;&lt;span style=&quot;color: #f8f8f2;&quot;&gt;)&lt;/span&gt;&lt;/div&gt;&lt;div&gt;&lt;span style=&quot;color: #f8f8f2;&quot;&gt;&amp;nbsp; &amp;nbsp; &lt;/span&gt;&lt;span style=&quot;color: #66d9ef;&quot;&gt;print&lt;/span&gt;&lt;span style=&quot;color: #f8f8f2;&quot;&gt;(&lt;/span&gt;&lt;span style=&quot;color: #66d9ef;font-style: italic;&quot;&gt;f&lt;/span&gt;&lt;span style=&quot;color: #e6db74;&quot;&gt;&quot;Use token auth: &lt;/span&gt;&lt;span style=&quot;color: #ae81ff;&quot;&gt;{APP_CONFIG&lt;/span&gt;&lt;span style=&quot;color: #f8f8f2;&quot;&gt;.gigachat.use_token_auth&lt;/span&gt;&lt;span style=&quot;color: #ae81ff;&quot;&gt;}&lt;/span&gt;&lt;span style=&quot;color: #e6db74;&quot;&gt;&quot;&lt;/span&gt;&lt;span style=&quot;color: #f8f8f2;&quot;&gt;)&lt;/span&gt;&lt;/div&gt;&lt;div&gt;&lt;span style=&quot;color: #f8f8f2;&quot;&gt;&amp;nbsp; &amp;nbsp; &lt;/span&gt;&lt;span style=&quot;color: #66d9ef;&quot;&gt;print&lt;/span&gt;&lt;span style=&quot;color: #f8f8f2;&quot;&gt;(&lt;/span&gt;&lt;span style=&quot;color: #66d9ef;font-style: italic;&quot;&gt;f&lt;/span&gt;&lt;span style=&quot;color: #e6db74;&quot;&gt;&quot;Has access token: &lt;/span&gt;&lt;span style=&quot;color: #ae81ff;&quot;&gt;{&lt;/span&gt;&lt;span style=&quot;color: #66d9ef;font-style: italic;&quot;&gt;bool&lt;/span&gt;&lt;span style=&quot;color: #f8f8f2;&quot;&gt;(&lt;/span&gt;&lt;span style=&quot;color: #ae81ff;&quot;&gt;APP_CONFIG&lt;/span&gt;&lt;span style=&quot;color: #f8f8f2;&quot;&gt;.gigachat.gigachat_access_token)&lt;/span&gt;&lt;span style=&quot;color: #ae81ff;&quot;&gt;}&lt;/span&gt;&lt;span style=&quot;color: #e6db74;&quot;&gt;&quot;&lt;/span&gt;&lt;span style=&quot;color: #f8f8f2;&quot;&gt;)&lt;/span&gt;&lt;/div&gt;&lt;div&gt;&lt;span style=&quot;color: #f8f8f2;&quot;&gt;&amp;nbsp; &amp;nbsp; &lt;/span&gt;&lt;span style=&quot;color: #66d9ef;&quot;&gt;print&lt;/span&gt;&lt;span style=&quot;color: #f8f8f2;&quot;&gt;(&lt;/span&gt;&lt;span style=&quot;color: #66d9ef;font-style: italic;&quot;&gt;f&lt;/span&gt;&lt;span style=&quot;color: #e6db74;&quot;&gt;&quot;Has credentials: &lt;/span&gt;&lt;span style=&quot;color: #ae81ff;&quot;&gt;{&lt;/span&gt;&lt;span style=&quot;color: #66d9ef;font-style: italic;&quot;&gt;bool&lt;/span&gt;&lt;span style=&quot;color: #f8f8f2;&quot;&gt;(&lt;/span&gt;&lt;span style=&quot;color: #ae81ff;&quot;&gt;APP_CONFIG&lt;/span&gt;&lt;span style=&quot;color: #f8f8f2;&quot;&gt;.gigachat.gigachat_credentials)&lt;/span&gt;&lt;span style=&quot;color: #ae81ff;&quot;&gt;}&lt;/span&gt;&lt;span style=&quot;color: #e6db74;&quot;&gt;&quot;&lt;/span&gt;&lt;span style=&quot;color: #f8f8f2;&quot;&gt;)&lt;/span&gt;&lt;/div&gt;&lt;div&gt;&lt;span style=&quot;color: #f8f8f2;&quot;&gt;&amp;nbsp; &amp;nbsp; &lt;/span&gt;&lt;span style=&quot;color: #f92672;&quot;&gt;if&lt;/span&gt;&lt;span style=&quot;color: #f8f8f2;&quot;&gt; oauth_url:&lt;/span&gt;&lt;/div&gt;&lt;div&gt;&lt;span style=&quot;color: #f8f8f2;&quot;&gt;&amp;nbsp; &amp;nbsp; &amp;nbsp; &amp;nbsp; &lt;/span&gt;&lt;span style=&quot;color: #66d9ef;&quot;&gt;print&lt;/span&gt;&lt;span style=&quot;color: #f8f8f2;&quot;&gt;(&lt;/span&gt;&lt;span style=&quot;color: #66d9ef;font-style: italic;&quot;&gt;f&lt;/span&gt;&lt;span style=&quot;color: #e6db74;&quot;&gt;&quot;OAuth URL: &lt;/span&gt;&lt;span style=&quot;color: #ae81ff;&quot;&gt;{&lt;/span&gt;&lt;span style=&quot;color: #f8f8f2;&quot;&gt;oauth_url&lt;/span&gt;&lt;span style=&quot;color: #ae81ff;&quot;&gt;}&lt;/span&gt;&lt;span style=&quot;color: #e6db74;&quot;&gt;&quot;&lt;/span&gt;&lt;span style=&quot;color: #f8f8f2;&quot;&gt;)&lt;/span&gt;&lt;/div&gt;&lt;br&gt;&lt;div&gt;&lt;span style=&quot;color: #f8f8f2;&quot;&gt;&amp;nbsp; &amp;nbsp; &lt;/span&gt;&lt;span style=&quot;color: #88846f;&quot;&gt;# Импортируем клиент GigaChat из пакета langchain_gigachat&lt;/span&gt;&lt;/div&gt;&lt;div&gt;&lt;span style=&quot;color: #f8f8f2;&quot;&gt;&amp;nbsp; &amp;nbsp; &lt;/span&gt;&lt;span style=&quot;color: #f92672;&quot;&gt;try&lt;/span&gt;&lt;span style=&quot;color: #f8f8f2;&quot;&gt;:&lt;/span&gt;&lt;/div&gt;&lt;div&gt;&lt;span style=&quot;color: #f8f8f2;&quot;&gt;&amp;nbsp; &amp;nbsp; &amp;nbsp; &amp;nbsp; &lt;/span&gt;&lt;span style=&quot;color: #f92672;&quot;&gt;from&lt;/span&gt;&lt;span style=&quot;color: #f8f8f2;&quot;&gt; langchain_gigachat &lt;/span&gt;&lt;span style=&quot;color: #f92672;&quot;&gt;import&lt;/span&gt;&lt;span style=&quot;color: #f8f8f2;&quot;&gt; GigaChat&lt;/span&gt;&lt;/div&gt;&lt;div&gt;&lt;span style=&quot;color: #f8f8f2;&quot;&gt;&amp;nbsp; &amp;nbsp; &lt;/span&gt;&lt;span style=&quot;color: #f92672;&quot;&gt;except&lt;/span&gt;&lt;span style=&quot;color: #f8f8f2;&quot;&gt; &lt;/span&gt;&lt;span style=&quot;color: #66d9ef;font-style: italic;&quot;&gt;Exception&lt;/span&gt;&lt;span style=&quot;color: #f8f8f2;&quot;&gt; &lt;/span&gt;&lt;span style=&quot;color: #f92672;&quot;&gt;as&lt;/span&gt;&lt;span style=&quot;color: #f8f8f2;&quot;&gt; e:&lt;/span&gt;&lt;/div&gt;&lt;div&gt;&lt;span style=&quot;color: #f8f8f2;&quot;&gt;&amp;nbsp; &amp;nbsp; &amp;nbsp; &amp;nbsp; &lt;/span&gt;&lt;span style=&quot;color: #66d9ef;&quot;&gt;print&lt;/span&gt;&lt;span style=&quot;color: #f8f8f2;&quot;&gt;(&lt;/span&gt;&lt;/div&gt;&lt;div&gt;&lt;span style=&quot;color: #f8f8f2;&quot;&gt;&amp;nbsp; &amp;nbsp; &amp;nbsp; &amp;nbsp; &amp;nbsp; &amp;nbsp; &lt;/span&gt;&lt;span style=&quot;color: #66d9ef;font-style: italic;&quot;&gt;f&lt;/span&gt;&lt;span style=&quot;color: #e6db74;&quot;&gt;&quot;[ERROR] Не удалось импортировать GigaChat из langchain_gigachat: &lt;/span&gt;&lt;span style=&quot;color: #ae81ff;&quot;&gt;{&lt;/span&gt;&lt;span style=&quot;color: #f8f8f2;&quot;&gt;e&lt;/span&gt;&lt;span style=&quot;color: #ae81ff;&quot;&gt;}&lt;/span&gt;&lt;span style=&quot;color: #e6db74;&quot;&gt;.&lt;/span&gt;&lt;span style=&quot;color: #ae81ff;&quot;&gt;\n&lt;/span&gt;&lt;span style=&quot;color: #e6db74;&quot;&gt;&quot;&lt;/span&gt;&lt;/div&gt;&lt;div&gt;&lt;span style=&quot;color: #f8f8f2;&quot;&gt;&amp;nbsp; &amp;nbsp; &amp;nbsp; &amp;nbsp; &amp;nbsp; &amp;nbsp; &lt;/span&gt;&lt;span style=&quot;color: #e6db74;&quot;&gt;&quot;Убедитесь, что зависимости установлены: poetry install&quot;&lt;/span&gt;&lt;/div&gt;&lt;div&gt;&lt;span style=&quot;color: #f8f8f2;&quot;&gt;&amp;nbsp; &amp;nbsp; &amp;nbsp; &amp;nbsp; )&lt;/span&gt;&lt;/div&gt;&lt;div&gt;&lt;span style=&quot;color: #f8f8f2;&quot;&gt;&amp;nbsp; &amp;nbsp; &amp;nbsp; &amp;nbsp; &lt;/span&gt;&lt;span style=&quot;color: #f92672;&quot;&gt;return&lt;/span&gt;&lt;span style=&quot;color: #f8f8f2;&quot;&gt; &lt;/span&gt;&lt;span style=&quot;color: #ae81ff;&quot;&gt;1&lt;/span&gt;&lt;/div&gt;&lt;br&gt;&lt;div&gt;&lt;span style=&quot;color: #f8f8f2;&quot;&gt;&amp;nbsp; &amp;nbsp; &lt;/span&gt;&lt;span style=&quot;color: #f92672;&quot;&gt;try&lt;/span&gt;&lt;span style=&quot;color: #f8f8f2;&quot;&gt;:&lt;/span&gt;&lt;/div&gt;&lt;div&gt;&lt;span style=&quot;color: #f8f8f2;&quot;&gt;&amp;nbsp; &amp;nbsp; &amp;nbsp; &amp;nbsp; client &lt;/span&gt;&lt;span style=&quot;color: #f92672;&quot;&gt;=&lt;/span&gt;&lt;span style=&quot;color: #f8f8f2;&quot;&gt; GigaChat(&lt;/span&gt;&lt;span style=&quot;color: #f92672;&quot;&gt;**&lt;/span&gt;&lt;span style=&quot;color: #f8f8f2;&quot;&gt;base_params)&lt;/span&gt;&lt;/div&gt;&lt;div&gt;&lt;span style=&quot;color: #f8f8f2;&quot;&gt;&amp;nbsp; &amp;nbsp; &amp;nbsp; &amp;nbsp; &lt;/span&gt;&lt;span style=&quot;color: #88846f;&quot;&gt;# Вариант 1: получить список моделей (минимальный запрос, триггерит OAuth)&lt;/span&gt;&lt;/div&gt;&lt;div&gt;&lt;span style=&quot;color: #f8f8f2;&quot;&gt;&amp;nbsp; &amp;nbsp; &amp;nbsp; &amp;nbsp; models &lt;/span&gt;&lt;span style=&quot;color: #f92672;&quot;&gt;=&lt;/span&gt;&lt;span style=&quot;color: #f8f8f2;&quot;&gt; client.get_models()&lt;/span&gt;&lt;/div&gt;&lt;div&gt;&lt;span style=&quot;color: #f8f8f2;&quot;&gt;&amp;nbsp; &amp;nbsp; &amp;nbsp; &amp;nbsp; &lt;/span&gt;&lt;span style=&quot;color: #66d9ef;&quot;&gt;print&lt;/span&gt;&lt;span style=&quot;color: #f8f8f2;&quot;&gt;(&lt;/span&gt;&lt;span style=&quot;color: #66d9ef;font-style: italic;&quot;&gt;f&lt;/span&gt;&lt;span style=&quot;color: #e6db74;&quot;&gt;&quot;Models received: &lt;/span&gt;&lt;span style=&quot;color: #ae81ff;&quot;&gt;{&lt;/span&gt;&lt;span style=&quot;color: #66d9ef;&quot;&gt;len&lt;/span&gt;&lt;span style=&quot;color: #f8f8f2;&quot;&gt;(models)&lt;/span&gt;&lt;span style=&quot;color: #ae81ff;&quot;&gt;}&lt;/span&gt;&lt;span style=&quot;color: #e6db74;&quot;&gt;&quot;&lt;/span&gt;&lt;span style=&quot;color: #f8f8f2;&quot;&gt;)&lt;/span&gt;&lt;/div&gt;&lt;br&gt;&lt;div&gt;&lt;span style=&quot;color: #f8f8f2;&quot;&gt;&amp;nbsp; &amp;nbsp; &amp;nbsp; &amp;nbsp; &lt;/span&gt;&lt;span style=&quot;color: #88846f;&quot;&gt;# Вариант 2: сделать короткий вызов чата&lt;/span&gt;&lt;/div&gt;&lt;div&gt;&lt;span style=&quot;color: #f8f8f2;&quot;&gt;&amp;nbsp; &amp;nbsp; &amp;nbsp; &amp;nbsp; &lt;/span&gt;&lt;span style=&quot;color: #f92672;&quot;&gt;try&lt;/span&gt;&lt;span style=&quot;color: #f8f8f2;&quot;&gt;:&lt;/span&gt;&lt;/div&gt;&lt;div&gt;&lt;span style=&quot;color: #f8f8f2;&quot;&gt;&amp;nbsp; &amp;nbsp; &amp;nbsp; &amp;nbsp; &amp;nbsp; &amp;nbsp; answer &lt;/span&gt;&lt;span style=&quot;color: #f92672;&quot;&gt;=&lt;/span&gt;&lt;span style=&quot;color: #f8f8f2;&quot;&gt; client.invoke(&lt;/span&gt;&lt;span style=&quot;color: #e6db74;&quot;&gt;&quot;ping&quot;&lt;/span&gt;&lt;span style=&quot;color: #f8f8f2;&quot;&gt;)&lt;/span&gt;&lt;/div&gt;&lt;div&gt;&lt;span style=&quot;color: #f8f8f2;&quot;&gt;&amp;nbsp; &amp;nbsp; &amp;nbsp; &amp;nbsp; &amp;nbsp; &amp;nbsp; content &lt;/span&gt;&lt;span style=&quot;color: #f92672;&quot;&gt;=&lt;/span&gt;&lt;span style=&quot;color: #f8f8f2;&quot;&gt; &lt;/span&gt;&lt;span style=&quot;color: #66d9ef;&quot;&gt;getattr&lt;/span&gt;&lt;span style=&quot;color: #f8f8f2;&quot;&gt;(answer, &lt;/span&gt;&lt;span style=&quot;color: #e6db74;&quot;&gt;&quot;content&quot;&lt;/span&gt;&lt;span style=&quot;color: #f8f8f2;&quot;&gt;, &lt;/span&gt;&lt;span style=&quot;color: #66d9ef;font-style: italic;&quot;&gt;str&lt;/span&gt;&lt;span style=&quot;color: #f8f8f2;&quot;&gt;(answer))&lt;/span&gt;&lt;/div&gt;&lt;div&gt;&lt;span style=&quot;color: #f8f8f2;&quot;&gt;&amp;nbsp; &amp;nbsp; &amp;nbsp; &amp;nbsp; &amp;nbsp; &amp;nbsp; &lt;/span&gt;&lt;span style=&quot;color: #66d9ef;&quot;&gt;print&lt;/span&gt;&lt;span style=&quot;color: #f8f8f2;&quot;&gt;(&lt;/span&gt;&lt;span style=&quot;color: #66d9ef;font-style: italic;&quot;&gt;f&lt;/span&gt;&lt;span style=&quot;color: #e6db74;&quot;&gt;&quot;Invoke OK. Answer: &lt;/span&gt;&lt;span style=&quot;color: #ae81ff;&quot;&gt;{&lt;/span&gt;&lt;span style=&quot;color: #f8f8f2;&quot;&gt;content[:&lt;/span&gt;&lt;span style=&quot;color: #ae81ff;&quot;&gt;120&lt;/span&gt;&lt;span style=&quot;color: #f8f8f2;&quot;&gt;]&lt;/span&gt;&lt;span style=&quot;color: #ae81ff;&quot;&gt;}&lt;/span&gt;&lt;span style=&quot;color: #e6db74;&quot;&gt;&quot;&lt;/span&gt;&lt;span style=&quot;color: #f8f8f2;&quot;&gt;)&lt;/span&gt;&lt;/div&gt;&lt;div&gt;&lt;span style=&quot;color: #f8f8f2;&quot;&gt;&amp;nbsp; &amp;nbsp; &amp;nbsp; &amp;nbsp; &lt;/span&gt;&lt;span style=&quot;color: #f92672;&quot;&gt;except&lt;/span&gt;&lt;span style=&quot;color: #f8f8f2;&quot;&gt; &lt;/span&gt;&lt;span style=&quot;color: #66d9ef;font-style: italic;&quot;&gt;Exception&lt;/span&gt;&lt;span style=&quot;color: #f8f8f2;&quot;&gt; &lt;/span&gt;&lt;span style=&quot;color: #f92672;&quot;&gt;as&lt;/span&gt;&lt;span style=&quot;color: #f8f8f2;&quot;&gt; e:&lt;/span&gt;&lt;/div&gt;&lt;div&gt;&lt;span style=&quot;color: #f8f8f2;&quot;&gt;&amp;nbsp; &amp;nbsp; &amp;nbsp; &amp;nbsp; &amp;nbsp; &amp;nbsp; &lt;/span&gt;&lt;span style=&quot;color: #66d9ef;&quot;&gt;print&lt;/span&gt;&lt;span style=&quot;color: #f8f8f2;&quot;&gt;(&lt;/span&gt;&lt;span style=&quot;color: #66d9ef;font-style: italic;&quot;&gt;f&lt;/span&gt;&lt;span style=&quot;color: #e6db74;&quot;&gt;&quot;[WARN] Invoke failed (не критично для проверки OAuth): &lt;/span&gt;&lt;span style=&quot;color: #ae81ff;&quot;&gt;{&lt;/span&gt;&lt;span style=&quot;color: #f8f8f2;&quot;&gt;e&lt;/span&gt;&lt;span style=&quot;color: #ae81ff;&quot;&gt;}&lt;/span&gt;&lt;span style=&quot;color: #e6db74;&quot;&gt;&quot;&lt;/span&gt;&lt;span style=&quot;color: #f8f8f2;&quot;&gt;)&lt;/span&gt;&lt;/div&gt;&lt;br&gt;&lt;div&gt;&lt;span style=&quot;color: #f8f8f2;&quot;&gt;&amp;nbsp; &amp;nbsp; &amp;nbsp; &amp;nbsp; &lt;/span&gt;&lt;span style=&quot;color: #66d9ef;&quot;&gt;print&lt;/span&gt;&lt;span style=&quot;color: #f8f8f2;&quot;&gt;(&lt;/span&gt;&lt;span style=&quot;color: #e6db74;&quot;&gt;&quot;[OK] Подключение к GigaChat установлено.&quot;&lt;/span&gt;&lt;span style=&quot;color: #f8f8f2;&quot;&gt;)&lt;/span&gt;&lt;/div&gt;&lt;div&gt;&lt;span style=&quot;color: #f8f8f2;&quot;&gt;&amp;nbsp; &amp;nbsp; &amp;nbsp; &amp;nbsp; &lt;/span&gt;&lt;span style=&quot;color: #f92672;&quot;&gt;return&lt;/span&gt;&lt;span style=&quot;color: #f8f8f2;&quot;&gt; &lt;/span&gt;&lt;span style=&quot;color: #ae81ff;&quot;&gt;0&lt;/span&gt;&lt;/div&gt;&lt;div&gt;&lt;span style=&quot;color: #f8f8f2;&quot;&gt;&amp;nbsp; &amp;nbsp; &lt;/span&gt;&lt;span style=&quot;color: #f92672;&quot;&gt;except&lt;/span&gt;&lt;span style=&quot;color: #f8f8f2;&quot;&gt; &lt;/span&gt;&lt;span style=&quot;color: #66d9ef;font-style: italic;&quot;&gt;Exception&lt;/span&gt;&lt;span style=&quot;color: #f8f8f2;&quot;&gt; &lt;/span&gt;&lt;span style=&quot;color: #f92672;&quot;&gt;as&lt;/span&gt;&lt;span style=&quot;color: #f8f8f2;&quot;&gt; e:&lt;/span&gt;&lt;/div&gt;&lt;div&gt;&lt;span style=&quot;color: #f8f8f2;&quot;&gt;&amp;nbsp; &amp;nbsp; &amp;nbsp; &amp;nbsp; &lt;/span&gt;&lt;span style=&quot;color: #66d9ef;&quot;&gt;print&lt;/span&gt;&lt;span style=&quot;color: #f8f8f2;&quot;&gt;(&lt;/span&gt;&lt;span style=&quot;color: #66d9ef;font-style: italic;&quot;&gt;f&lt;/span&gt;&lt;span style=&quot;color: #e6db74;&quot;&gt;&quot;[ERROR] Ошибка подключения к GigaChat: &lt;/span&gt;&lt;span style=&quot;color: #ae81ff;&quot;&gt;{&lt;/span&gt;&lt;span style=&quot;color: #f8f8f2;&quot;&gt;e&lt;/span&gt;&lt;span style=&quot;color: #ae81ff;&quot;&gt;}&lt;/span&gt;&lt;span style=&quot;color: #e6db74;&quot;&gt;&quot;&lt;/span&gt;&lt;span style=&quot;color: #f8f8f2;&quot;&gt;)&lt;/span&gt;&lt;/div&gt;&lt;div&gt;&lt;span style=&quot;color: #f8f8f2;&quot;&gt;&amp;nbsp; &amp;nbsp; &amp;nbsp; &amp;nbsp; &lt;/span&gt;&lt;span style=&quot;color: #f92672;&quot;&gt;return&lt;/span&gt;&lt;span style=&quot;color: #f8f8f2;&quot;&gt; &lt;/span&gt;&lt;span style=&quot;color: #ae81ff;&quot;&gt;2&lt;/span&gt;&lt;/div&gt;&lt;br&gt;&lt;br&gt;&lt;div&gt;&lt;span style=&quot;color: #f92672;&quot;&gt;if&lt;/span&gt;&lt;span style=&quot;color: #f8f8f2;&quot;&gt; __name__ &lt;/span&gt;&lt;span style=&quot;color: #f92672;&quot;&gt;==&lt;/span&gt;&lt;span style=&quot;color: #f8f8f2;&quot;&gt; &lt;/span&gt;&lt;span style=&quot;color: #e6db74;&quot;&gt;&quot;__main__&quot;&lt;/span&gt;&lt;span style=&quot;color: #f8f8f2;&quot;&gt;:&lt;/span&gt;&lt;/div&gt;&lt;div&gt;&lt;span style=&quot;color: #f8f8f2;&quot;&gt;&amp;nbsp; &amp;nbsp; sys.exit(main())&lt;/span&gt;&lt;/div&gt;&lt;br&gt;&lt;br&gt;&lt;br&gt;&lt;/div&gt;" link="&lt;div style=&quot;color: #f8f8f2;background-color: #272822;font-family: Consolas, &#39;Courier New&#39;, monospace;font-weight: normal;font-size: 14px;line-height: 19px;white-space: pre;&quot;&gt;&lt;div&gt;&lt;span style=&quot;color: #e6db74;&quot;&gt;&quot;&quot;&quot;&lt;/span&gt;&lt;/div&gt;&lt;div&gt;&lt;span style=&quot;color: #e6db74;&quot;&gt;Простой скрипт для проверки подключения и авторизации к GigaChat.&lt;/span&gt;&lt;/div&gt;&lt;br&gt;&lt;div&gt;&lt;span style=&quot;color: #e6db74;&quot;&gt;Использует конфигурацию проекта (`aigw_service.config.APP_CONFIG`) и&lt;/span&gt;&lt;/div&gt;&lt;div&gt;&lt;span style=&quot;color: #e6db74;&quot;&gt;инициирует запрос к API GigaChat для форсирования авторизации (OAuth к NGW)&lt;/span&gt;&lt;/div&gt;&lt;div&gt;&lt;span style=&quot;color: #e6db74;&quot;&gt;при использовании `GIGACHAT_CREDENTIALS`.&lt;/span&gt;&lt;/div&gt;&lt;br&gt;&lt;div&gt;&lt;span style=&quot;color: #e6db74;&quot;&gt;Запуск:&lt;/span&gt;&lt;/div&gt;&lt;div&gt;&lt;span style=&quot;color: #e6db74;&quot;&gt;&amp;nbsp; &amp;nbsp; poetry run python examples/gigachat_connect_test.py&lt;/span&gt;&lt;/div&gt;&lt;br&gt;&lt;div&gt;&lt;span style=&quot;color: #e6db74;&quot;&gt;Переменные окружения (в .env):&lt;/span&gt;&lt;/div&gt;&lt;div&gt;&lt;span style=&quot;color: #e6db74;&quot;&gt;&amp;nbsp; &amp;nbsp; LOCAL=True&lt;/span&gt;&lt;/div&gt;&lt;div&gt;&lt;span style=&quot;color: #e6db74;&quot;&gt;&amp;nbsp; &amp;nbsp; GIGACHAT_HOST=gigachat.devices.sberbank.ru&lt;/span&gt;&lt;/div&gt;&lt;div&gt;&lt;span style=&quot;color: #e6db74;&quot;&gt;&amp;nbsp; &amp;nbsp; GIGACHAT_PORT=443&lt;/span&gt;&lt;/div&gt;&lt;div&gt;&lt;span style=&quot;color: #e6db74;&quot;&gt;&amp;nbsp; &amp;nbsp; GIGACHAT_ENDPOINT=/api/v1&lt;/span&gt;&lt;/div&gt;&lt;div&gt;&lt;span style=&quot;color: #e6db74;&quot;&gt;&amp;nbsp; &amp;nbsp; GIGACHAT_CREDENTIALS=... (base64 client_id:client_secret)&lt;/span&gt;&lt;/div&gt;&lt;div&gt;&lt;span style=&quot;color: #e6db74;&quot;&gt;&amp;nbsp; &amp;nbsp; GIGACHAT_SCOPE=GIGACHAT_API_CORP (или ваш)&lt;/span&gt;&lt;/div&gt;&lt;div&gt;&lt;span style=&quot;color: #e6db74;&quot;&gt;&amp;nbsp; &amp;nbsp; [опц.] GIGACHAT_ACCESS_TOKEN= (оставьте пустым, чтобы проверить OAuth)&lt;/span&gt;&lt;/div&gt;&lt;div&gt;&lt;span style=&quot;color: #e6db74;&quot;&gt;&amp;nbsp; &amp;nbsp; [опц.] GIGACHAT_OAUTH_URL=https://ngw.devices.sberbank.ru:9443/api/v2/oauth&lt;/span&gt;&lt;/div&gt;&lt;div&gt;&lt;span style=&quot;color: #e6db74;&quot;&gt;&quot;&quot;&quot;&lt;/span&gt;&lt;/div&gt;&lt;br&gt;&lt;div&gt;&lt;span style=&quot;color: #f92672;&quot;&gt;import&lt;/span&gt;&lt;span style=&quot;color: #f8f8f2;&quot;&gt; os&lt;/span&gt;&lt;/div&gt;&lt;div&gt;&lt;span style=&quot;color: #f92672;&quot;&gt;import&lt;/span&gt;&lt;span style=&quot;color: #f8f8f2;&quot;&gt; sys&lt;/span&gt;&lt;/div&gt;&lt;div&gt;&lt;span style=&quot;color: #f92672;&quot;&gt;from&lt;/span&gt;&lt;span style=&quot;color: #f8f8f2;&quot;&gt; typing &lt;/span&gt;&lt;span style=&quot;color: #f92672;&quot;&gt;import&lt;/span&gt;&lt;span style=&quot;color: #f8f8f2;&quot;&gt; Any, Dict&lt;/span&gt;&lt;/div&gt;&lt;br&gt;&lt;div&gt;&lt;span style=&quot;color: #f92672;&quot;&gt;from&lt;/span&gt;&lt;span style=&quot;color: #f8f8f2;&quot;&gt; dotenv &lt;/span&gt;&lt;span style=&quot;color: #f92672;&quot;&gt;import&lt;/span&gt;&lt;span style=&quot;color: #f8f8f2;&quot;&gt; load_dotenv&lt;/span&gt;&lt;/div&gt;&lt;br&gt;&lt;br&gt;&lt;div&gt;&lt;span style=&quot;color: #66d9ef;font-style: italic;&quot;&gt;def&lt;/span&gt;&lt;span style=&quot;color: #f8f8f2;&quot;&gt; &lt;/span&gt;&lt;span style=&quot;color: #a6e22e;&quot;&gt;main&lt;/span&gt;&lt;span style=&quot;color: #f8f8f2;&quot;&gt;() -&amp;gt; &lt;/span&gt;&lt;span style=&quot;color: #66d9ef;font-style: italic;&quot;&gt;int&lt;/span&gt;&lt;span style=&quot;color: #f8f8f2;&quot;&gt;:&lt;/span&gt;&lt;/div&gt;&lt;div&gt;&lt;span style=&quot;color: #f8f8f2;&quot;&gt;&amp;nbsp; &amp;nbsp; &lt;/span&gt;&lt;span style=&quot;color: #88846f;&quot;&gt;# Загружаем .env из корня проекта&lt;/span&gt;&lt;/div&gt;&lt;div&gt;&lt;span style=&quot;color: #f8f8f2;&quot;&gt;&amp;nbsp; &amp;nbsp; project_root &lt;/span&gt;&lt;span style=&quot;color: #f92672;&quot;&gt;=&lt;/span&gt;&lt;span style=&quot;color: #f8f8f2;&quot;&gt; os.path.abspath(os.path.join(os.path.dirname(__file__), os.pardir))&lt;/span&gt;&lt;/div&gt;&lt;div&gt;&lt;span style=&quot;color: #f8f8f2;&quot;&gt;&amp;nbsp; &amp;nbsp; dotenv_path &lt;/span&gt;&lt;span style=&quot;color: #f92672;&quot;&gt;=&lt;/span&gt;&lt;span style=&quot;color: #f8f8f2;&quot;&gt; os.path.join(project_root, &lt;/span&gt;&lt;span style=&quot;color: #e6db74;&quot;&gt;&quot;.env&quot;&lt;/span&gt;&lt;span style=&quot;color: #f8f8f2;&quot;&gt;)&lt;/span&gt;&lt;/div&gt;&lt;div&gt;&lt;span style=&quot;color: #f8f8f2;&quot;&gt;&amp;nbsp; &amp;nbsp; load_dotenv(dotenv_path)&lt;/span&gt;&lt;/div&gt;&lt;br&gt;&lt;div&gt;&lt;span style=&quot;color: #f8f8f2;&quot;&gt;&amp;nbsp; &amp;nbsp; &lt;/span&gt;&lt;span style=&quot;color: #88846f;&quot;&gt;# Импортируем после загрузки .env, чтобы конфиг подтянул значения&lt;/span&gt;&lt;/div&gt;&lt;div&gt;&lt;span style=&quot;color: #f8f8f2;&quot;&gt;&amp;nbsp; &amp;nbsp; &lt;/span&gt;&lt;span style=&quot;color: #f92672;&quot;&gt;try&lt;/span&gt;&lt;span style=&quot;color: #f8f8f2;&quot;&gt;:&lt;/span&gt;&lt;/div&gt;&lt;div&gt;&lt;span style=&quot;color: #f8f8f2;&quot;&gt;&amp;nbsp; &amp;nbsp; &amp;nbsp; &amp;nbsp; &lt;/span&gt;&lt;span style=&quot;color: #f92672;&quot;&gt;from&lt;/span&gt;&lt;span style=&quot;color: #f8f8f2;&quot;&gt; aigw_service.config &lt;/span&gt;&lt;span style=&quot;color: #f92672;&quot;&gt;import&lt;/span&gt;&lt;span style=&quot;color: #f8f8f2;&quot;&gt; &lt;/span&gt;&lt;span style=&quot;color: #ae81ff;&quot;&gt;APP_CONFIG&lt;/span&gt;&lt;/div&gt;&lt;div&gt;&lt;span style=&quot;color: #f8f8f2;&quot;&gt;&amp;nbsp; &amp;nbsp; &lt;/span&gt;&lt;span style=&quot;color: #f92672;&quot;&gt;except&lt;/span&gt;&lt;span style=&quot;color: #f8f8f2;&quot;&gt; &lt;/span&gt;&lt;span style=&quot;color: #66d9ef;font-style: italic;&quot;&gt;Exception&lt;/span&gt;&lt;span style=&quot;color: #f8f8f2;&quot;&gt; &lt;/span&gt;&lt;span style=&quot;color: #f92672;&quot;&gt;as&lt;/span&gt;&lt;span style=&quot;color: #f8f8f2;&quot;&gt; e:&lt;/span&gt;&lt;/div&gt;&lt;div&gt;&lt;span style=&quot;color: #f8f8f2;&quot;&gt;&amp;nbsp; &amp;nbsp; &amp;nbsp; &amp;nbsp; &lt;/span&gt;&lt;span style=&quot;color: #66d9ef;&quot;&gt;print&lt;/span&gt;&lt;span style=&quot;color: #f8f8f2;&quot;&gt;(&lt;/span&gt;&lt;span style=&quot;color: #66d9ef;font-style: italic;&quot;&gt;f&lt;/span&gt;&lt;span style=&quot;color: #e6db74;&quot;&gt;&quot;[ERROR] Не удалось импортировать конфиг приложения: &lt;/span&gt;&lt;span style=&quot;color: #ae81ff;&quot;&gt;{&lt;/span&gt;&lt;span style=&quot;color: #f8f8f2;&quot;&gt;e&lt;/span&gt;&lt;span style=&quot;color: #ae81ff;&quot;&gt;}&lt;/span&gt;&lt;span style=&quot;color: #e6db74;&quot;&gt;&quot;&lt;/span&gt;&lt;span style=&quot;color: #f8f8f2;&quot;&gt;)&lt;/span&gt;&lt;/div&gt;&lt;div&gt;&lt;span style=&quot;color: #f8f8f2;&quot;&gt;&amp;nbsp; &amp;nbsp; &amp;nbsp; &amp;nbsp; &lt;/span&gt;&lt;span style=&quot;color: #f92672;&quot;&gt;return&lt;/span&gt;&lt;span style=&quot;color: #f8f8f2;&quot;&gt; &lt;/span&gt;&lt;span style=&quot;color: #ae81ff;&quot;&gt;1&lt;/span&gt;&lt;/div&gt;&lt;br&gt;&lt;div&gt;&lt;span style=&quot;color: #f8f8f2;&quot;&gt;&amp;nbsp; &amp;nbsp; &lt;/span&gt;&lt;span style=&quot;color: #88846f;&quot;&gt;# Базовые параметры клиента&lt;/span&gt;&lt;/div&gt;&lt;div&gt;&lt;span style=&quot;color: #f8f8f2;&quot;&gt;&amp;nbsp; &amp;nbsp; base_params: Dict[&lt;/span&gt;&lt;span style=&quot;color: #66d9ef;font-style: italic;&quot;&gt;str&lt;/span&gt;&lt;span style=&quot;color: #f8f8f2;&quot;&gt;, Any] &lt;/span&gt;&lt;span style=&quot;color: #f92672;&quot;&gt;=&lt;/span&gt;&lt;span style=&quot;color: #f8f8f2;&quot;&gt; &lt;/span&gt;&lt;span style=&quot;color: #66d9ef;font-style: italic;&quot;&gt;dict&lt;/span&gt;&lt;span style=&quot;color: #f8f8f2;&quot;&gt;(&lt;/span&gt;&lt;span style=&quot;color: #ae81ff;&quot;&gt;APP_CONFIG&lt;/span&gt;&lt;span style=&quot;color: #f8f8f2;&quot;&gt;.gigachat.base_params)&lt;/span&gt;&lt;/div&gt;&lt;br&gt;&lt;div&gt;&lt;span style=&quot;color: #f8f8f2;&quot;&gt;&amp;nbsp; &amp;nbsp; &lt;/span&gt;&lt;span style=&quot;color: #88846f;&quot;&gt;# Поддержка кастомного OAuth URL, если клиент принимает этот параметр&lt;/span&gt;&lt;/div&gt;&lt;div&gt;&lt;span style=&quot;color: #f8f8f2;&quot;&gt;&amp;nbsp; &amp;nbsp; oauth_url &lt;/span&gt;&lt;span style=&quot;color: #f92672;&quot;&gt;=&lt;/span&gt;&lt;span style=&quot;color: #f8f8f2;&quot;&gt; os.getenv(&lt;/span&gt;&lt;span style=&quot;color: #e6db74;&quot;&gt;&quot;GIGACHAT_OAUTH_URL&quot;&lt;/span&gt;&lt;span style=&quot;color: #f8f8f2;&quot;&gt;, &lt;/span&gt;&lt;span style=&quot;color: #e6db74;&quot;&gt;&quot;&quot;&lt;/span&gt;&lt;span style=&quot;color: #f8f8f2;&quot;&gt;)&lt;/span&gt;&lt;/div&gt;&lt;div&gt;&lt;span style=&quot;color: #f8f8f2;&quot;&gt;&amp;nbsp; &amp;nbsp; &lt;/span&gt;&lt;span style=&quot;color: #f92672;&quot;&gt;if&lt;/span&gt;&lt;span style=&quot;color: #f8f8f2;&quot;&gt; oauth_url:&lt;/span&gt;&lt;/div&gt;&lt;div&gt;&lt;span style=&quot;color: #f8f8f2;&quot;&gt;&amp;nbsp; &amp;nbsp; &amp;nbsp; &amp;nbsp; &lt;/span&gt;&lt;span style=&quot;color: #88846f;&quot;&gt;# Часто параметр называется oauth_url в langchain-gigachat&lt;/span&gt;&lt;/div&gt;&lt;div&gt;&lt;span style=&quot;color: #f8f8f2;&quot;&gt;&amp;nbsp; &amp;nbsp; &amp;nbsp; &amp;nbsp; base_params.setdefault(&lt;/span&gt;&lt;span style=&quot;color: #e6db74;&quot;&gt;&quot;oauth_url&quot;&lt;/span&gt;&lt;span style=&quot;color: #f8f8f2;&quot;&gt;, oauth_url)&lt;/span&gt;&lt;/div&gt;&lt;br&gt;&lt;div&gt;&lt;span style=&quot;color: #f8f8f2;&quot;&gt;&amp;nbsp; &amp;nbsp; &lt;/span&gt;&lt;span style=&quot;color: #88846f;&quot;&gt;# Явно уменьшим таймаут для теста&lt;/span&gt;&lt;/div&gt;&lt;div&gt;&lt;span style=&quot;color: #f8f8f2;&quot;&gt;&amp;nbsp; &amp;nbsp; base_params.setdefault(&lt;/span&gt;&lt;span style=&quot;color: #e6db74;&quot;&gt;&quot;timeout&quot;&lt;/span&gt;&lt;span style=&quot;color: #f8f8f2;&quot;&gt;, &lt;/span&gt;&lt;span style=&quot;color: #ae81ff;&quot;&gt;30&lt;/span&gt;&lt;span style=&quot;color: #f8f8f2;&quot;&gt;)&lt;/span&gt;&lt;/div&gt;&lt;br&gt;&lt;div&gt;&lt;span style=&quot;color: #f8f8f2;&quot;&gt;&amp;nbsp; &amp;nbsp; &lt;/span&gt;&lt;span style=&quot;color: #88846f;&quot;&gt;# Отладочный вывод&lt;/span&gt;&lt;/div&gt;&lt;div&gt;&lt;span style=&quot;color: #f8f8f2;&quot;&gt;&amp;nbsp; &amp;nbsp; &lt;/span&gt;&lt;span style=&quot;color: #66d9ef;&quot;&gt;print&lt;/span&gt;&lt;span style=&quot;color: #f8f8f2;&quot;&gt;(&lt;/span&gt;&lt;span style=&quot;color: #e6db74;&quot;&gt;&quot;== GigaChat connection test ==&quot;&lt;/span&gt;&lt;span style=&quot;color: #f8f8f2;&quot;&gt;)&lt;/span&gt;&lt;/div&gt;&lt;div&gt;&lt;span style=&quot;color: #f8f8f2;&quot;&gt;&amp;nbsp; &amp;nbsp; &lt;/span&gt;&lt;span style=&quot;color: #66d9ef;&quot;&gt;print&lt;/span&gt;&lt;span style=&quot;color: #f8f8f2;&quot;&gt;(&lt;/span&gt;&lt;span style=&quot;color: #66d9ef;font-style: italic;&quot;&gt;f&lt;/span&gt;&lt;span style=&quot;color: #e6db74;&quot;&gt;&quot;Base URL: &lt;/span&gt;&lt;span style=&quot;color: #ae81ff;&quot;&gt;{APP_CONFIG&lt;/span&gt;&lt;span style=&quot;color: #f8f8f2;&quot;&gt;.gigachat.gigachat_base_url&lt;/span&gt;&lt;span style=&quot;color: #ae81ff;&quot;&gt;}&lt;/span&gt;&lt;span style=&quot;color: #e6db74;&quot;&gt;&quot;&lt;/span&gt;&lt;span style=&quot;color: #f8f8f2;&quot;&gt;)&lt;/span&gt;&lt;/div&gt;&lt;div&gt;&lt;span style=&quot;color: #f8f8f2;&quot;&gt;&amp;nbsp; &amp;nbsp; &lt;/span&gt;&lt;span style=&quot;color: #66d9ef;&quot;&gt;print&lt;/span&gt;&lt;span style=&quot;color: #f8f8f2;&quot;&gt;(&lt;/span&gt;&lt;span style=&quot;color: #66d9ef;font-style: italic;&quot;&gt;f&lt;/span&gt;&lt;span style=&quot;color: #e6db74;&quot;&gt;&quot;Use token auth: &lt;/span&gt;&lt;span style=&quot;color: #ae81ff;&quot;&gt;{APP_CONFIG&lt;/span&gt;&lt;span style=&quot;color: #f8f8f2;&quot;&gt;.gigachat.use_token_auth&lt;/span&gt;&lt;span style=&quot;color: #ae81ff;&quot;&gt;}&lt;/span&gt;&lt;span style=&quot;color: #e6db74;&quot;&gt;&quot;&lt;/span&gt;&lt;span style=&quot;color: #f8f8f2;&quot;&gt;)&lt;/span&gt;&lt;/div&gt;&lt;div&gt;&lt;span style=&quot;color: #f8f8f2;&quot;&gt;&amp;nbsp; &amp;nbsp; &lt;/span&gt;&lt;span style=&quot;color: #66d9ef;&quot;&gt;print&lt;/span&gt;&lt;span style=&quot;color: #f8f8f2;&quot;&gt;(&lt;/span&gt;&lt;span style=&quot;color: #66d9ef;font-style: italic;&quot;&gt;f&lt;/span&gt;&lt;span style=&quot;color: #e6db74;&quot;&gt;&quot;Has access token: &lt;/span&gt;&lt;span style=&quot;color: #ae81ff;&quot;&gt;{&lt;/span&gt;&lt;span style=&quot;color: #66d9ef;font-style: italic;&quot;&gt;bool&lt;/span&gt;&lt;span style=&quot;color: #f8f8f2;&quot;&gt;(&lt;/span&gt;&lt;span style=&quot;color: #ae81ff;&quot;&gt;APP_CONFIG&lt;/span&gt;&lt;span style=&quot;color: #f8f8f2;&quot;&gt;.gigachat.gigachat_access_token)&lt;/span&gt;&lt;span style=&quot;color: #ae81ff;&quot;&gt;}&lt;/span&gt;&lt;span style=&quot;color: #e6db74;&quot;&gt;&quot;&lt;/span&gt;&lt;span style=&quot;color: #f8f8f2;&quot;&gt;)&lt;/span&gt;&lt;/div&gt;&lt;div&gt;&lt;span style=&quot;color: #f8f8f2;&quot;&gt;&amp;nbsp; &amp;nbsp; &lt;/span&gt;&lt;span style=&quot;color: #66d9ef;&quot;&gt;print&lt;/span&gt;&lt;span style=&quot;color: #f8f8f2;&quot;&gt;(&lt;/span&gt;&lt;span style=&quot;color: #66d9ef;font-style: italic;&quot;&gt;f&lt;/span&gt;&lt;span style=&quot;color: #e6db74;&quot;&gt;&quot;Has credentials: &lt;/span&gt;&lt;span style=&quot;color: #ae81ff;&quot;&gt;{&lt;/span&gt;&lt;span style=&quot;color: #66d9ef;font-style: italic;&quot;&gt;bool&lt;/span&gt;&lt;span style=&quot;color: #f8f8f2;&quot;&gt;(&lt;/span&gt;&lt;span style=&quot;color: #ae81ff;&quot;&gt;APP_CONFIG&lt;/span&gt;&lt;span style=&quot;color: #f8f8f2;&quot;&gt;.gigachat.gigachat_credentials)&lt;/span&gt;&lt;span style=&quot;color: #ae81ff;&quot;&gt;}&lt;/span&gt;&lt;span style=&quot;color: #e6db74;&quot;&gt;&quot;&lt;/span&gt;&lt;span style=&quot;color: #f8f8f2;&quot;&gt;)&lt;/span&gt;&lt;/div&gt;&lt;div&gt;&lt;span style=&quot;color: #f8f8f2;&quot;&gt;&amp;nbsp; &amp;nbsp; &lt;/span&gt;&lt;span style=&quot;color: #f92672;&quot;&gt;if&lt;/span&gt;&lt;span style=&quot;color: #f8f8f2;&quot;&gt; oauth_url:&lt;/span&gt;&lt;/div&gt;&lt;div&gt;&lt;span style=&quot;color: #f8f8f2;&quot;&gt;&amp;nbsp; &amp;nbsp; &amp;nbsp; &amp;nbsp; &lt;/span&gt;&lt;span style=&quot;color: #66d9ef;&quot;&gt;print&lt;/span&gt;&lt;span style=&quot;color: #f8f8f2;&quot;&gt;(&lt;/span&gt;&lt;span style=&quot;color: #66d9ef;font-style: italic;&quot;&gt;f&lt;/span&gt;&lt;span style=&quot;color: #e6db74;&quot;&gt;&quot;OAuth URL: &lt;/span&gt;&lt;span style=&quot;color: #ae81ff;&quot;&gt;{&lt;/span&gt;&lt;span style=&quot;color: #f8f8f2;&quot;&gt;oauth_url&lt;/span&gt;&lt;span style=&quot;color: #ae81ff;&quot;&gt;}&lt;/span&gt;&lt;span style=&quot;color: #e6db74;&quot;&gt;&quot;&lt;/span&gt;&lt;span style=&quot;color: #f8f8f2;&quot;&gt;)&lt;/span&gt;&lt;/div&gt;&lt;br&gt;&lt;div&gt;&lt;span style=&quot;color: #f8f8f2;&quot;&gt;&amp;nbsp; &amp;nbsp; &lt;/span&gt;&lt;span style=&quot;color: #88846f;&quot;&gt;# Импортируем клиент GigaChat из пакета langchain_gigachat&lt;/span&gt;&lt;/div&gt;&lt;div&gt;&lt;span style=&quot;color: #f8f8f2;&quot;&gt;&amp;nbsp; &amp;nbsp; &lt;/span&gt;&lt;span style=&quot;color: #f92672;&quot;&gt;try&lt;/span&gt;&lt;span style=&quot;color: #f8f8f2;&quot;&gt;:&lt;/span&gt;&lt;/div&gt;&lt;div&gt;&lt;span style=&quot;color: #f8f8f2;&quot;&gt;&amp;nbsp; &amp;nbsp; &amp;nbsp; &amp;nbsp; &lt;/span&gt;&lt;span style=&quot;color: #f92672;&quot;&gt;from&lt;/span&gt;&lt;span style=&quot;color: #f8f8f2;&quot;&gt; langchain_gigachat &lt;/span&gt;&lt;span style=&quot;color: #f92672;&quot;&gt;import&lt;/span&gt;&lt;span style=&quot;color: #f8f8f2;&quot;&gt; GigaChat&lt;/span&gt;&lt;/div&gt;&lt;div&gt;&lt;span style=&quot;color: #f8f8f2;&quot;&gt;&amp;nbsp; &amp;nbsp; &lt;/span&gt;&lt;span style=&quot;color: #f92672;&quot;&gt;except&lt;/span&gt;&lt;span style=&quot;color: #f8f8f2;&quot;&gt; &lt;/span&gt;&lt;span style=&quot;color: #66d9ef;font-style: italic;&quot;&gt;Exception&lt;/span&gt;&lt;span style=&quot;color: #f8f8f2;&quot;&gt; &lt;/span&gt;&lt;span style=&quot;color: #f92672;&quot;&gt;as&lt;/span&gt;&lt;span style=&quot;color: #f8f8f2;&quot;&gt; e:&lt;/span&gt;&lt;/div&gt;&lt;div&gt;&lt;span style=&quot;color: #f8f8f2;&quot;&gt;&amp;nbsp; &amp;nbsp; &amp;nbsp; &amp;nbsp; &lt;/span&gt;&lt;span style=&quot;color: #66d9ef;&quot;&gt;print&lt;/span&gt;&lt;span style=&quot;color: #f8f8f2;&quot;&gt;(&lt;/span&gt;&lt;/div&gt;&lt;div&gt;&lt;span style=&quot;color: #f8f8f2;&quot;&gt;&amp;nbsp; &amp;nbsp; &amp;nbsp; &amp;nbsp; &amp;nbsp; &amp;nbsp; &lt;/span&gt;&lt;span style=&quot;color: #66d9ef;font-style: italic;&quot;&gt;f&lt;/span&gt;&lt;span style=&quot;color: #e6db74;&quot;&gt;&quot;[ERROR] Не удалось импортировать GigaChat из langchain_gigachat: &lt;/span&gt;&lt;span style=&quot;color: #ae81ff;&quot;&gt;{&lt;/span&gt;&lt;span style=&quot;color: #f8f8f2;&quot;&gt;e&lt;/span&gt;&lt;span style=&quot;color: #ae81ff;&quot;&gt;}&lt;/span&gt;&lt;span style=&quot;color: #e6db74;&quot;&gt;.&lt;/span&gt;&lt;span style=&quot;color: #ae81ff;&quot;&gt;\n&lt;/span&gt;&lt;span style=&quot;color: #e6db74;&quot;&gt;&quot;&lt;/span&gt;&lt;/div&gt;&lt;div&gt;&lt;span style=&quot;color: #f8f8f2;&quot;&gt;&amp;nbsp; &amp;nbsp; &amp;nbsp; &amp;nbsp; &amp;nbsp; &amp;nbsp; &lt;/span&gt;&lt;span style=&quot;color: #e6db74;&quot;&gt;&quot;Убедитесь, что зависимости установлены: poetry install&quot;&lt;/span&gt;&lt;/div&gt;&lt;div&gt;&lt;span style=&quot;color: #f8f8f2;&quot;&gt;&amp;nbsp; &amp;nbsp; &amp;nbsp; &amp;nbsp; )&lt;/span&gt;&lt;/div&gt;&lt;div&gt;&lt;span style=&quot;color: #f8f8f2;&quot;&gt;&amp;nbsp; &amp;nbsp; &amp;nbsp; &amp;nbsp; &lt;/span&gt;&lt;span style=&quot;color: #f92672;&quot;&gt;return&lt;/span&gt;&lt;span style=&quot;color: #f8f8f2;&quot;&gt; &lt;/span&gt;&lt;span style=&quot;color: #ae81ff;&quot;&gt;1&lt;/span&gt;&lt;/div&gt;&lt;br&gt;&lt;div&gt;&lt;span style=&quot;color: #f8f8f2;&quot;&gt;&amp;nbsp; &amp;nbsp; &lt;/span&gt;&lt;span style=&quot;color: #f92672;&quot;&gt;try&lt;/span&gt;&lt;span style=&quot;color: #f8f8f2;&quot;&gt;:&lt;/span&gt;&lt;/div&gt;&lt;div&gt;&lt;span style=&quot;color: #f8f8f2;&quot;&gt;&amp;nbsp; &amp;nbsp; &amp;nbsp; &amp;nbsp; client &lt;/span&gt;&lt;span style=&quot;color: #f92672;&quot;&gt;=&lt;/span&gt;&lt;span style=&quot;color: #f8f8f2;&quot;&gt; GigaChat(&lt;/span&gt;&lt;span style=&quot;color: #f92672;&quot;&gt;**&lt;/span&gt;&lt;span style=&quot;color: #f8f8f2;&quot;&gt;base_params)&lt;/span&gt;&lt;/div&gt;&lt;div&gt;&lt;span style=&quot;color: #f8f8f2;&quot;&gt;&amp;nbsp; &amp;nbsp; &amp;nbsp; &amp;nbsp; &lt;/span&gt;&lt;span style=&quot;color: #88846f;&quot;&gt;# Вариант 1: получить список моделей (минимальный запрос, триггерит OAuth)&lt;/span&gt;&lt;/div&gt;&lt;div&gt;&lt;span style=&quot;color: #f8f8f2;&quot;&gt;&amp;nbsp; &amp;nbsp; &amp;nbsp; &amp;nbsp; models &lt;/span&gt;&lt;span style=&quot;color: #f92672;&quot;&gt;=&lt;/span&gt;&lt;span style=&quot;color: #f8f8f2;&quot;&gt; client.get_models()&lt;/span&gt;&lt;/div&gt;&lt;div&gt;&lt;span style=&quot;color: #f8f8f2;&quot;&gt;&amp;nbsp; &amp;nbsp; &amp;nbsp; &amp;nbsp; &lt;/span&gt;&lt;span style=&quot;color: #66d9ef;&quot;&gt;print&lt;/span&gt;&lt;span style=&quot;color: #f8f8f2;&quot;&gt;(&lt;/span&gt;&lt;span style=&quot;color: #66d9ef;font-style: italic;&quot;&gt;f&lt;/span&gt;&lt;span style=&quot;color: #e6db74;&quot;&gt;&quot;Models received: &lt;/span&gt;&lt;span style=&quot;color: #ae81ff;&quot;&gt;{&lt;/span&gt;&lt;span style=&quot;color: #66d9ef;&quot;&gt;len&lt;/span&gt;&lt;span style=&quot;color: #f8f8f2;&quot;&gt;(models)&lt;/span&gt;&lt;span style=&quot;color: #ae81ff;&quot;&gt;}&lt;/span&gt;&lt;span style=&quot;color: #e6db74;&quot;&gt;&quot;&lt;/span&gt;&lt;span style=&quot;color: #f8f8f2;&quot;&gt;)&lt;/span&gt;&lt;/div&gt;&lt;br&gt;&lt;div&gt;&lt;span style=&quot;color: #f8f8f2;&quot;&gt;&amp;nbsp; &amp;nbsp; &amp;nbsp; &amp;nbsp; &lt;/span&gt;&lt;span style=&quot;color: #88846f;&quot;&gt;# Вариант 2: сделать короткий вызов чата&lt;/span&gt;&lt;/div&gt;&lt;div&gt;&lt;span style=&quot;color: #f8f8f2;&quot;&gt;&amp;nbsp; &amp;nbsp; &amp;nbsp; &amp;nbsp; &lt;/span&gt;&lt;span style=&quot;color: #f92672;&quot;&gt;try&lt;/span&gt;&lt;span style=&quot;color: #f8f8f2;&quot;&gt;:&lt;/span&gt;&lt;/div&gt;&lt;div&gt;&lt;span style=&quot;color: #f8f8f2;&quot;&gt;&amp;nbsp; &amp;nbsp; &amp;nbsp; &amp;nbsp; &amp;nbsp; &amp;nbsp; answer &lt;/span&gt;&lt;span style=&quot;color: #f92672;&quot;&gt;=&lt;/span&gt;&lt;span style=&quot;color: #f8f8f2;&quot;&gt; client.invoke(&lt;/span&gt;&lt;span style=&quot;color: #e6db74;&quot;&gt;&quot;ping&quot;&lt;/span&gt;&lt;span style=&quot;color: #f8f8f2;&quot;&gt;)&lt;/span&gt;&lt;/div&gt;&lt;div&gt;&lt;span style=&quot;color: #f8f8f2;&quot;&gt;&amp;nbsp; &amp;nbsp; &amp;nbsp; &amp;nbsp; &amp;nbsp; &amp;nbsp; content &lt;/span&gt;&lt;span style=&quot;color: #f92672;&quot;&gt;=&lt;/span&gt;&lt;span style=&quot;color: #f8f8f2;&quot;&gt; &lt;/span&gt;&lt;span style=&quot;color: #66d9ef;&quot;&gt;getattr&lt;/span&gt;&lt;span style=&quot;color: #f8f8f2;&quot;&gt;(answer, &lt;/span&gt;&lt;span style=&quot;color: #e6db74;&quot;&gt;&quot;content&quot;&lt;/span&gt;&lt;span style=&quot;color: #f8f8f2;&quot;&gt;, &lt;/span&gt;&lt;span style=&quot;color: #66d9ef;font-style: italic;&quot;&gt;str&lt;/span&gt;&lt;span style=&quot;color: #f8f8f2;&quot;&gt;(answer))&lt;/span&gt;&lt;/div&gt;&lt;div&gt;&lt;span style=&quot;color: #f8f8f2;&quot;&gt;&amp;nbsp; &amp;nbsp; &amp;nbsp; &amp;nbsp; &amp;nbsp; &amp;nbsp; &lt;/span&gt;&lt;span style=&quot;color: #66d9ef;&quot;&gt;print&lt;/span&gt;&lt;span style=&quot;color: #f8f8f2;&quot;&gt;(&lt;/span&gt;&lt;span style=&quot;color: #66d9ef;font-style: italic;&quot;&gt;f&lt;/span&gt;&lt;span style=&quot;color: #e6db74;&quot;&gt;&quot;Invoke OK. Answer: &lt;/span&gt;&lt;span style=&quot;color: #ae81ff;&quot;&gt;{&lt;/span&gt;&lt;span style=&quot;color: #f8f8f2;&quot;&gt;content[:&lt;/span&gt;&lt;span style=&quot;color: #ae81ff;&quot;&gt;120&lt;/span&gt;&lt;span style=&quot;color: #f8f8f2;&quot;&gt;]&lt;/span&gt;&lt;span style=&quot;color: #ae81ff;&quot;&gt;}&lt;/span&gt;&lt;span style=&quot;color: #e6db74;&quot;&gt;&quot;&lt;/span&gt;&lt;span style=&quot;color: #f8f8f2;&quot;&gt;)&lt;/span&gt;&lt;/div&gt;&lt;div&gt;&lt;span style=&quot;color: #f8f8f2;&quot;&gt;&amp;nbsp; &amp;nbsp; &amp;nbsp; &amp;nbsp; &lt;/span&gt;&lt;span style=&quot;color: #f92672;&quot;&gt;except&lt;/span&gt;&lt;span style=&quot;color: #f8f8f2;&quot;&gt; &lt;/span&gt;&lt;span style=&quot;color: #66d9ef;font-style: italic;&quot;&gt;Exception&lt;/span&gt;&lt;span style=&quot;color: #f8f8f2;&quot;&gt; &lt;/span&gt;&lt;span style=&quot;color: #f92672;&quot;&gt;as&lt;/span&gt;&lt;span style=&quot;color: #f8f8f2;&quot;&gt; e:&lt;/span&gt;&lt;/div&gt;&lt;div&gt;&lt;span style=&quot;color: #f8f8f2;&quot;&gt;&amp;nbsp; &amp;nbsp; &amp;nbsp; &amp;nbsp; &amp;nbsp; &amp;nbsp; &lt;/span&gt;&lt;span style=&quot;color: #66d9ef;&quot;&gt;print&lt;/span&gt;&lt;span style=&quot;color: #f8f8f2;&quot;&gt;(&lt;/span&gt;&lt;span style=&quot;color: #66d9ef;font-style: italic;&quot;&gt;f&lt;/span&gt;&lt;span style=&quot;color: #e6db74;&quot;&gt;&quot;[WARN] Invoke failed (не критично для проверки OAuth): &lt;/span&gt;&lt;span style=&quot;color: #ae81ff;&quot;&gt;{&lt;/span&gt;&lt;span style=&quot;color: #f8f8f2;&quot;&gt;e&lt;/span&gt;&lt;span style=&quot;color: #ae81ff;&quot;&gt;}&lt;/span&gt;&lt;span style=&quot;color: #e6db74;&quot;&gt;&quot;&lt;/span&gt;&lt;span style=&quot;color: #f8f8f2;&quot;&gt;)&lt;/span&gt;&lt;/div&gt;&lt;br&gt;&lt;div&gt;&lt;span style=&quot;color: #f8f8f2;&quot;&gt;&amp;nbsp; &amp;nbsp; &amp;nbsp; &amp;nbsp; &lt;/span&gt;&lt;span style=&quot;color: #66d9ef;&quot;&gt;print&lt;/span&gt;&lt;span style=&quot;color: #f8f8f2;&quot;&gt;(&lt;/span&gt;&lt;span style=&quot;color: #e6db74;&quot;&gt;&quot;[OK] Подключение к GigaChat установлено.&quot;&lt;/span&gt;&lt;span style=&quot;color: #f8f8f2;&quot;&gt;)&lt;/span&gt;&lt;/div&gt;&lt;div&gt;&lt;span style=&quot;color: #f8f8f2;&quot;&gt;&amp;nbsp; &amp;nbsp; &amp;nbsp; &amp;nbsp; &lt;/span&gt;&lt;span style=&quot;color: #f92672;&quot;&gt;return&lt;/span&gt;&lt;span style=&quot;color: #f8f8f2;&quot;&gt; &lt;/span&gt;&lt;span style=&quot;color: #ae81ff;&quot;&gt;0&lt;/span&gt;&lt;/div&gt;&lt;div&gt;&lt;span style=&quot;color: #f8f8f2;&quot;&gt;&amp;nbsp; &amp;nbsp; &lt;/span&gt;&lt;span style=&quot;color: #f92672;&quot;&gt;except&lt;/span&gt;&lt;span style=&quot;color: #f8f8f2;&quot;&gt; &lt;/span&gt;&lt;span style=&quot;color: #66d9ef;font-style: italic;&quot;&gt;Exception&lt;/span&gt;&lt;span style=&quot;color: #f8f8f2;&quot;&gt; &lt;/span&gt;&lt;span style=&quot;color: #f92672;&quot;&gt;as&lt;/span&gt;&lt;span style=&quot;color: #f8f8f2;&quot;&gt; e:&lt;/span&gt;&lt;/div&gt;&lt;div&gt;&lt;span style=&quot;color: #f8f8f2;&quot;&gt;&amp;nbsp; &amp;nbsp; &amp;nbsp; &amp;nbsp; &lt;/span&gt;&lt;span style=&quot;color: #66d9ef;&quot;&gt;print&lt;/span&gt;&lt;span style=&quot;color: #f8f8f2;&quot;&gt;(&lt;/span&gt;&lt;span style=&quot;color: #66d9ef;font-style: italic;&quot;&gt;f&lt;/span&gt;&lt;span style=&quot;color: #e6db74;&quot;&gt;&quot;[ERROR] Ошибка подключения к GigaChat: &lt;/span&gt;&lt;span style=&quot;color: #ae81ff;&quot;&gt;{&lt;/span&gt;&lt;span style=&quot;color: #f8f8f2;&quot;&gt;e&lt;/span&gt;&lt;span style=&quot;color: #ae81ff;&quot;&gt;}&lt;/span&gt;&lt;span style=&quot;color: #e6db74;&quot;&gt;&quot;&lt;/span&gt;&lt;span style=&quot;color: #f8f8f2;&quot;&gt;)&lt;/span&gt;&lt;/div&gt;&lt;div&gt;&lt;span style=&quot;color: #f8f8f2;&quot;&gt;&amp;nbsp; &amp;nbsp; &amp;nbsp; &amp;nbsp; &lt;/span&gt;&lt;span style=&quot;color: #f92672;&quot;&gt;return&lt;/span&gt;&lt;span style=&quot;color: #f8f8f2;&quot;&gt; &lt;/span&gt;&lt;span style=&quot;color: #ae81ff;&quot;&gt;2&lt;/span&gt;&lt;/div&gt;&lt;br&gt;&lt;br&gt;&lt;div&gt;&lt;span style=&quot;color: #f92672;&quot;&gt;if&lt;/span&gt;&lt;span style=&quot;color: #f8f8f2;&quot;&gt; __name__ &lt;/span&gt;&lt;span style=&quot;color: #f92672;&quot;&gt;==&lt;/span&gt;&lt;span style=&quot;color: #f8f8f2;&quot;&gt; &lt;/span&gt;&lt;span style=&quot;color: #e6db74;&quot;&gt;&quot;__main__&quot;&lt;/span&gt;&lt;span style=&quot;color: #f8f8f2;&quot;&gt;:&lt;/span&gt;&lt;/div&gt;&lt;div&gt;&lt;span style=&quot;color: #f8f8f2;&quot;&gt;&amp;nbsp; &amp;nbsp; sys.exit(main())&lt;/span&gt;&lt;/div&gt;&lt;br&gt;&lt;br&gt;&lt;br&gt;&lt;/div&gt;" id="6TUQVXqevLIUsPXIy-Aa-1">
          <mxCell style="text;whiteSpace=wrap;html=1;" parent="1" vertex="1">
            <mxGeometry x="260" y="80" width="560" height="1890" as="geometry" />
          </mxCell>
        </UserObject>
        <UserObject label="20734976@sigma.sbrf.ru@SZB-WSN-0002258:~/kib-vas-agent/kib-vas-agent$ poetry run examples/gigachat_connect_test.py &#xa;&#xa;&#xa;[Errno 13] Permission denied: &#39;examples/gigachat_connect_test.py&#39;" link="20734976@sigma.sbrf.ru@SZB-WSN-0002258:~/kib-vas-agent/kib-vas-agent$ poetry run examples/gigachat_connect_test.py &#xa;&#xa;&#xa;[Errno 13] Permission denied: &#39;examples/gigachat_connect_test.py&#39;" id="DSNMYpRrBqVaP7X5KKwe-1">
          <mxCell style="text;whiteSpace=wrap;" parent="1" vertex="1">
            <mxGeometry x="1050" y="180" width="560" height="100" as="geometry" />
          </mxCell>
        </UserObject>
        <UserObject label="import uuid&#xa;import os&#xa;import re&#xa;import requests&#xa;from datetime import datetime&#xa;from core.logging.logger_utils import log&#xa;from scenarios.user.user_model import User&#xa;&#xa;&#xa;&#xa;&#xa;def run_request(user: User, service_id: str = &quot;faq&quot;) -&gt; None:&#xa;    &quot;&quot;&quot;Отправляет запрос к серверу в соответствии с новым форматом&quot;&quot;&quot;&#xa;    HEADERS = {&#xa;        &#39;accept&#39;: &#39;application/json&#39;,&#xa;        &#39;Content-Type&#39;: &#39;application/json&#39;,&#xa;    }&#xa;    external_uuid = str(uuid.uuid4())&#xa;    SOURCE_ID = os.getenv(&#39;SOURCE_ID&#39;, &#39;957ec5e0-a331-4da8-9fa7-15a1c4d86035&#39;)&#xa;    INDEX_ID_FAQ = os.getenv(&#39;INDEX_ID&#39;, &#39;9870147f-a646-4421-aa96-aa8960c821fb_dkpp_index_faq_0_1_0&#39;)&#xa;    INDEX_ID_SOURCES = os.getenv(&#39;INDEX_ID_SOURCES&#39;, &#39;9870147f-a646-4421-aa96-aa8960c821fb_dkpp_index_nofaq_0_2_1&#39;)&#xa;    URL = os.getenv(&#39;IDP_API&#39;, &#39;sm.apps.dev-terra000003-ids.ocp.delta.sbrf.ru&#39;)&#xa;    MODEL_NAME = &quot;GigaChat-2-Max&quot;&#xa;&#xa;&#xa;    uri = r&quot;http://&quot; + URL + r&quot;/sync/skill/universal_search&quot;&#xa;&#xa;&#xa;        &#xa;    search_config = {&#xa;    &quot;agent_type&quot;: &quot;universal&quot;,&#xa;    &quot;agent_configuration&quot;: {&#xa;        &quot;index_type&quot;: &quot;opensearch&quot;,&#xa;        &quot;data_sources&quot;: [&#xa;            {&#xa;                &quot;index_id&quot;: INDEX_ID_SOURCES&#xa;            }&#xa;        ],&#xa;        &quot;data_sources_faq&quot;: [&#xa;            {&#xa;                &quot;index_id&quot;: INDEX_ID_FAQ&#xa;            }&#xa;        ],&#xa;        &quot;query_rewriter&quot;: {&#xa;            &quot;enabled&quot;: False&#xa;        },&#xa;        &quot;reranker&quot;: {&#xa;            &quot;enabled&quot;: False&#xa;        },&#xa;        &quot;reranker_faq&quot;: {&#xa;            &quot;enabled&quot;: False&#xa;        },&#xa;        &quot;retriever&quot;: {&#xa;            &quot;bm25_weight&quot;: 0.3,&#xa;            &quot;global_size&quot;: 100,&#xa;            &quot;size&quot;: 10,&#xa;            &quot;embedder&quot;: {&#xa;                &quot;model_name&quot;: &quot;gigachat&quot;&#xa;            }&#xa;        },&#xa;        &quot;retriever_faq&quot;: {&#xa;            &quot;bm25_weight&quot;: 0.2,&#xa;            &quot;global_size&quot;: 100,&#xa;            &quot;size&quot;: 10,&#xa;            &quot;embedder&quot;: {&#xa;                &quot;model_name&quot;: &quot;gigachat&quot;&#xa;            }&#xa;        },&#xa;        &quot;context_expansion&quot;: {&#xa;            &quot;enabled&quot;: False,&#xa;            &quot;chapter_aggregation&quot;: True,&#xa;            &quot;max_tokens&quot;: 2000&#xa;        },&#xa;        &quot;qa&quot;: {&#xa;            &quot;enabled&quot;: True,&#xa;            &quot;qa_scenario&quot;: &quot;stuff&quot;,&#xa;            &quot;model_name&quot;: MODEL_NAME,&#xa;            &quot;temperature&quot;: 0.1,&#xa;            &quot;top_p&quot;: 0,&#xa;            &quot;repetition_penalty&quot;: 1&#xa;        },&#xa;        &quot;sources&quot;: {&#xa;            &quot;enabled&quot;: True,&#xa;            &quot;source_type&quot;: &quot;passage&quot;&#xa;        },&#xa;        &quot;inline_sources&quot;: {&#xa;            &quot;enabled&quot;: True,&#xa;            &quot;format&quot;: &quot;index_caret&quot;,&#xa;            &quot;source_type&quot;: &quot;passage&quot;&#xa;        }&#xa;    }&#xa;}&#xa;&#xa;&#xa;&#xa;&#xa;    chat = {&#xa;        &quot;request_type&quot;: &quot;chat&quot;,&#xa;        &quot;request&quot;: {&#xa;            &quot;messages&quot;: [&#xa;            {&#xa;                &quot;role&quot;: &quot;user&quot;,&#xa;                &quot;content&quot;: user.variables.get(&#39;IDP_question&#39;, &#39;&#39;),&#xa;            }&#xa;        ],&#xa;        }&#xa;    }&#xa;&#xa;&#xa;    request_body = {&#xa;        &quot;meta&quot;: {&quot;external_uuid&quot;: external_uuid, &quot;source_uuid&quot;: SOURCE_ID},&#xa;        &quot;message&quot;: chat,&#xa;        &quot;path&quot;: &quot;/predict&quot;,&#xa;        &quot;timeout&quot;: 600,&#xa;        &quot;configuration&quot;: search_config&#xa;    }&#xa;&#xa;&#xa;    try:&#xa;        log(f&quot;ПОПЫТКА ОТПРАВИТЬ ЗАПРОС НА УНИВЕРСАЛЬНЫЙ СКИЛЛ IDP {uri}, {str(HEADERS)}, {str(request_body)}&quot;)&#xa;        response = requests.post(&#xa;            uri,&#xa;            headers=HEADERS,&#xa;            json=request_body,&#xa;            verify=True&#xa;        )&#xa;&#xa;&#xa;        ## Замена численных источников на названия документов&#xa;&#xa;&#xa;        revert_replacements = {&#xa;            &#39;_SPACE_&#39;: &#39; &#39;,&#xa;            &#39;_COMMA_&#39;: &#39;,&#39;,&#xa;            &#39;_DOT_&#39;: &#39;.&#39;,&#xa;            &#39;_EXCLAMATIONMARK_&#39;: &#39;!&#39;,&#xa;            &#39;_QUESTIONMARK_&#39;: &#39;?&#39;,&#xa;            &#39;_COLON_&#39;: &#39;:&#39;,&#xa;            &#39;_SEMICOLON_&#39;: &#39;;&#39;,&#xa;            &#39;_HYPHEN_&#39;: &#39;-&#39;,&#xa;            &#39;_UNDERSCORE_&#39;: &#39;_&#39;,&#xa;            &#39;_LEFTPARENTHESIS_&#39;: &#39;(&#39;,&#xa;            &#39;_RIGHTPARENTHESIS_&#39;: &#39;)&#39;,&#xa;            &#39;_LEFTBRACKET_&#39;: &#39;[&#39;,&#xa;            &#39;_RIGHTBRACKET_&#39;: &#39;]&#39;,&#xa;            &#39;_LEFTBRACE_&#39;: &#39;{&#39;,&#xa;            &#39;_RIGHTBRACE_&#39;: &#39;}&#39;,&#xa;            &#39;_APOSTROPHE_&#39;: &quot;&#39;&quot;,&#xa;            &#39;_QUOTATIONMARK_&#39;: &#39;&quot;&#39;,&#xa;            &#39;_SLASH_&#39;: &#39;/&#39;,&#xa;            &#39;_BACKSLASH_&#39;: &#39;\\&#39;,&#xa;            &#39;_VERTICALBAR_&#39;: &#39;|&#39;,&#xa;            &#39;_ATSIGN_&#39;: &#39;@&#39;,&#xa;            &#39;_HASHTAG_&#39;: &#39;#&#39;,&#xa;            &#39;_DOLLARSIGN_&#39;: &#39;$&#39;,&#xa;            &#39;_PERCENTSIGN_&#39;: &#39;%&#39;,&#xa;            &#39;_CARET_&#39;: &#39;^&#39;,&#xa;            &#39;_AMPERSAND_&#39;: &#39;&amp;&#39;,&#xa;            &#39;_ASTERISK_&#39;: &#39;*&#39;,&#xa;            &#39;_PLUSSIGN_&#39;: &#39;+&#39;,&#xa;            &#39;_EQUALSIGN_&#39;: &#39;=&#39;,&#xa;            &#39;_LESSTHAN_&#39;: &#39;&lt;&#39;,&#xa;            &#39;_GREATERTHAN_&#39;: &#39;&gt;&#39;,&#xa;            &#39;_GRAVEACCENT_&#39;: &#39;`&#39;,&#xa;            &#39;_TILDE_&#39;: &#39;~&#39;,&#xa;            &#39;_NUMBERSYMB_&#39;: &#39;№&#39;,&#xa;        }&#xa;&#xa;&#xa;        pattern = re.compile(&#39;|&#39;.join(re.escape(char) for char in revert_replacements.keys()))&#xa;&#xa;&#xa;        def replacer(match):&#xa;            return revert_replacements[match.group(0)]&#xa;&#xa;&#xa;        response_clean = response.json()[&#39;result&#39;][&#39;response&#39;][&#39;messages&#39;][-1]&#xa;        server_answer_content = response_clean[&#39;content&#39;]&#xa;        # inline_sources = response_clean[&#39;faq_sources&#39;]&#xa;        # for i in range(len(inline_sources)):&#xa;        #     replace_on_raw = inline_sources[i][&#39;metadata&#39;][&#39;tags&#39;][0]&#xa;        #     replace_on = pattern.sub(replacer, replace_on_raw)[1:]&#xa;        #     server_answer_content = server_answer_content.replace(f&#39;[^{i+1}^]&#39;, f&quot;[{replace_on}]&quot;)&#xa;&#xa;&#xa;        inline_sources = response.json()[&#39;result&#39;][&#39;response&#39;][&#39;messages&#39;][-1][&#39;inline_sources&#39;]&#xa;        for i, inl_src in enumerate(inline_sources):&#xa;            replace_on = &quot;&quot;&#xa;            if inl_src[&#39;source_type&#39;] == &#39;faq&#39;:&#xa;                replace_on_raw = inl_src[&#39;source&#39;][&#39;metadata&#39;][&#39;tags&#39;][0]&#xa;                replace_on = &#39;[&#39; + pattern.sub(replacer, replace_on_raw)[1:] + &#39;]&#39;&#xa;            elif inl_src[&#39;source_type&#39;] == &#39;passage&#39;:&#xa;                path_elements = inl_src[&#39;source&#39;][&#39;metadata&#39;][&#39;breadcrumbs&#39;].split(&#39;/&#39;)&#xa;                if len(path_elements) &gt; 1:&#xa;                    replace_on = &#39;[&#39; + path_elements[-2] + &#39;]&#39;&#xa;            server_answer_content = server_answer_content.replace(f&#39;[^{i+1}^]&#39;, f&quot;{replace_on}&quot;)&#xa;&#xa;&#xa;&#xa;&#xa;        log(f&quot;ПОЛУЧЕННЫЙ ОТВЕТ С IDP {server_answer_content}&quot;)&#xa;        user.variables.set(&#39;IDP_answer&#39;, server_answer_content)&#xa;        log(f&quot;Успешный запрос к {uri}. Ответ обработан.&quot;, level=&quot;INFO&quot;)&#xa;        log(f&quot;ПОЛУЧЕННЫЙ ОТВЕТ С IDP {server_answer_content}&quot;)&#xa;        user.variables.set(&#39;IDP_answer&#39;, server_answer_content)&#xa;        log(f&quot;Успешный запрос к {uri}. Ответ обработан.&quot;, level=&quot;INFO&quot;)&#xa;&#xa;&#xa;    except requests.RequestException as e:&#xa;        user.variables.set(&#39;IDP_answer&#39;, &#39;Ошибка при обработке запроса&#39;)&#xa;        log(f&quot;Ответ от IDP: {response.text}&quot;, level=&quot;INFO&quot;)&#xa;        log(f&quot;Ошибка запроса к {uri}: {str(e)}&quot;, level=&quot;ERROR&quot;)&#xa;    except (KeyError, IndexError, ValueError) as e:&#xa;        user.variables.set(&#39;IDP_answer&#39;, &#39;Ошибка при обработке ответа&#39;)&#xa;        log(f&quot;Ответ от IDP: {response.text}&quot;, level=&quot;INFO&quot;)&#xa;        log(f&quot;Ошибка обработки ответа: {str(e)}&quot;, level=&quot;ERROR&quot;)&#xa;&#xa;&#xa;if __name__ == &#39;__main__&#39;:&#xa;    questions = [&quot;Какие манипуляции с долгом возможны в отчетности?&quot;,&#xa;&quot;По какому участнику сделки требуется построение прогноза движения денежных средств при установлении ИР на Консолидированную Группу?&quot;,&#xa;&quot;На какой срок строятся будущие денежные потоки?&quot;,&#xa;&quot;Как определить, что деятельность носит сезонный характер?&quot;,&#xa;&quot;Можно ли строить будущие денежные потоки в иностранной валюте?&quot;,&#xa;&quot;Относится ли к прочим изменениям увеличение срока действующей банковской гарантии в пределах срока лимита ЕДБГ без увеличения срока действия лимита ЕДБГ?&quot;,&#xa;&quot;Требуется ли проверка Fraud-риска по техническим изменениям?&quot;,&#xa;&quot;Является ли прочим изменением продление периода выборки по сделке УФН?&quot;,&#xa;&quot;Финансирует ли Банк казино?&quot;,&#xa;&quot;Особенности финансирования по договорам простого товарищества&quot;,&#xa;&quot;Может ли банк финансировать некоммерческие организации?&quot;]&#xa;    for question in questions:&#xa;        run_request(question)&#xa;Это скрипт для отправки запроса в сервис.&#xa;Нужно сделать аналогичный, для отправки на такой API:&#xa;@router.post(&#xa;    &quot;/idp_search&quot;,&#xa;    status_code=status.HTTP_200_OK,&#xa;    response_model=schemas.IDPSearchResponse,&#xa;    responses={&#xa;        status.HTTP_424_FAILED_DEPENDENCY: {&#xa;            &quot;description&quot;: &quot;Ошибка при взаимодействии с IDP системой&quot;,&#xa;            &quot;model&quot;: schemas.IDPErrorResponse,&#xa;        },&#xa;    },&#xa;)&#xa;async def idp_search(&#xa;    request: schemas.IDPSearchRequest,&#xa;    headers: dict = Depends(common_headers),&#xa;):&#xa;    &quot;&quot;&quot;&#xa;    Поиск информации в IDP (Intelligent Data Platform).&#xa;    &#xa;    Этот endpoint позволяет выполнить поиск информации в корпоративной базе знаний &#xa;    через IDP API. Система автоматически обрабатывает запрос, выполняет поиск&#xa;    по документам и возвращает ответ с ссылками на источники.&#xa;    &quot;&quot;&quot;&#xa;    logger.info(f&quot;Processing IDP search request: &#39;{request.question[:100]}...&#39;&quot;)&#xa;    &#xa;    # Отправляем запрос через IDP сервис&#xa;    answer, response_time, error_msg, external_uuid = await idp_service.search(request.question)&#xa;    &#xa;    if error_msg:&#xa;        logger.error(f&quot;IDP search failed: {error_msg}&quot;)&#xa;        return JSONResponse(&#xa;            status_code=status.HTTP_424_FAILED_DEPENDENCY,&#xa;            content=schemas.IDPErrorResponse(&#xa;                error_description=f&quot;Ошибка при обращении к IDP: {error_msg}&quot;,&#xa;                error_code=error_msg,&#xa;                response_time=response_time,&#xa;            ).model_dump(),&#xa;        )&#xa;    &#xa;    logger.info(f&quot;IDP search completed in {response_time:.2f}s&quot;)&#xa;    return schemas.IDPSearchResponse(&#xa;        answer=answer,&#xa;        response_time=response_time,&#xa;        external_uuid=external_uuid,&#xa;    )&#xa;&#xa;&#xa;# IDP Schemas&#xa;&#xa;&#xa;class IDPSearchRequest(BaseModel):&#xa;    &quot;&quot;&quot;Тело запроса для IDP поиска&quot;&quot;&quot;&#xa;&#xa;&#xa;    question: str = Field(&#xa;        description=&quot;Вопрос для поиска в IDP (Intelligent Data Platform)&quot;,&#xa;        min_length=4,&#xa;        examples=[&#xa;            &quot;Какие манипуляции с долгом возможны в отчетности?&quot;,&#xa;            &quot;По какому участнику сделки требуется построение прогноза движения денежных средств?&quot;,&#xa;            &quot;На какой срок строятся будущие денежные потоки?&quot;&#xa;        ],&#xa;    )&#xa;&#xa;&#xa;&#xa;&#xa;class IDPSearchResponse(BaseModel):&#xa;    &quot;&quot;&quot;Ответ для IDP поиска&quot;&quot;&quot;&#xa;&#xa;&#xa;    answer: str = Field(&#xa;        description=&quot;Ответ от IDP с информацией из базы знаний и ссылками на источники&quot;,&#xa;        examples=[&#xa;            &quot;Согласно документации [Руководство по кредитным операциям], манипуляции с долгом включают реструктуризацию, рефинансирование и списание безнадежной задолженности.&quot;&#xa;        ],&#xa;    )&#xa;    response_time: float = Field(&#xa;        description=&quot;Время ответа в секундах&quot;,&#xa;        examples=[3.24],&#xa;    )&#xa;    external_uuid: str = Field(&#xa;        description=&quot;Уникальный идентификатор запроса&quot;,&#xa;        examples=[&quot;550e8400-e29b-41d4-a716-446655440000&quot;],&#xa;    )&#xa;&#xa;&#xa;&#xa;&#xa;class IDPErrorResponse(BaseModel):&#xa;    &quot;&quot;&quot;Ошибка при работе с IDP&quot;&quot;&quot;&#xa;&#xa;&#xa;    error_description: str = Field(&#xa;        description=&quot;Описание ошибки при обращении к IDP&quot;,&#xa;        examples=[&#xa;            &quot;Ошибка при обработке запроса к IDP&quot;,&#xa;            &quot;Timeout при обращении к IDP API&quot;,&#xa;            &quot;Ошибка при обработке ответа от IDP&quot;&#xa;        ],&#xa;    )&#xa;    error_code: str = Field(&#xa;        description=&quot;Код ошибки&quot;,&#xa;        examples=[&quot;IDP_REQUEST_ERROR&quot;, &quot;IDP_TIMEOUT_ERROR&quot;, &quot;IDP_RESPONSE_ERROR&quot;],&#xa;    )&#xa;    response_time: Optional[float] = Field(&#xa;        description=&quot;Время ответа в секундах (если доступно)&quot;,&#xa;        examples=[5.0],&#xa;        default=None,&#xa;    )" link="import uuid&#xa;import os&#xa;import re&#xa;import requests&#xa;from datetime import datetime&#xa;from core.logging.logger_utils import log&#xa;from scenarios.user.user_model import User&#xa;&#xa;&#xa;&#xa;&#xa;def run_request(user: User, service_id: str = &quot;faq&quot;) -&gt; None:&#xa;    &quot;&quot;&quot;Отправляет запрос к серверу в соответствии с новым форматом&quot;&quot;&quot;&#xa;    HEADERS = {&#xa;        &#39;accept&#39;: &#39;application/json&#39;,&#xa;        &#39;Content-Type&#39;: &#39;application/json&#39;,&#xa;    }&#xa;    external_uuid = str(uuid.uuid4())&#xa;    SOURCE_ID = os.getenv(&#39;SOURCE_ID&#39;, &#39;957ec5e0-a331-4da8-9fa7-15a1c4d86035&#39;)&#xa;    INDEX_ID_FAQ = os.getenv(&#39;INDEX_ID&#39;, &#39;9870147f-a646-4421-aa96-aa8960c821fb_dkpp_index_faq_0_1_0&#39;)&#xa;    INDEX_ID_SOURCES = os.getenv(&#39;INDEX_ID_SOURCES&#39;, &#39;9870147f-a646-4421-aa96-aa8960c821fb_dkpp_index_nofaq_0_2_1&#39;)&#xa;    URL = os.getenv(&#39;IDP_API&#39;, &#39;sm.apps.dev-terra000003-ids.ocp.delta.sbrf.ru&#39;)&#xa;    MODEL_NAME = &quot;GigaChat-2-Max&quot;&#xa;&#xa;&#xa;    uri = r&quot;http://&quot; + URL + r&quot;/sync/skill/universal_search&quot;&#xa;&#xa;&#xa;        &#xa;    search_config = {&#xa;    &quot;agent_type&quot;: &quot;universal&quot;,&#xa;    &quot;agent_configuration&quot;: {&#xa;        &quot;index_type&quot;: &quot;opensearch&quot;,&#xa;        &quot;data_sources&quot;: [&#xa;            {&#xa;                &quot;index_id&quot;: INDEX_ID_SOURCES&#xa;            }&#xa;        ],&#xa;        &quot;data_sources_faq&quot;: [&#xa;            {&#xa;                &quot;index_id&quot;: INDEX_ID_FAQ&#xa;            }&#xa;        ],&#xa;        &quot;query_rewriter&quot;: {&#xa;            &quot;enabled&quot;: False&#xa;        },&#xa;        &quot;reranker&quot;: {&#xa;            &quot;enabled&quot;: False&#xa;        },&#xa;        &quot;reranker_faq&quot;: {&#xa;            &quot;enabled&quot;: False&#xa;        },&#xa;        &quot;retriever&quot;: {&#xa;            &quot;bm25_weight&quot;: 0.3,&#xa;            &quot;global_size&quot;: 100,&#xa;            &quot;size&quot;: 10,&#xa;            &quot;embedder&quot;: {&#xa;                &quot;model_name&quot;: &quot;gigachat&quot;&#xa;            }&#xa;        },&#xa;        &quot;retriever_faq&quot;: {&#xa;            &quot;bm25_weight&quot;: 0.2,&#xa;            &quot;global_size&quot;: 100,&#xa;            &quot;size&quot;: 10,&#xa;            &quot;embedder&quot;: {&#xa;                &quot;model_name&quot;: &quot;gigachat&quot;&#xa;            }&#xa;        },&#xa;        &quot;context_expansion&quot;: {&#xa;            &quot;enabled&quot;: False,&#xa;            &quot;chapter_aggregation&quot;: True,&#xa;            &quot;max_tokens&quot;: 2000&#xa;        },&#xa;        &quot;qa&quot;: {&#xa;            &quot;enabled&quot;: True,&#xa;            &quot;qa_scenario&quot;: &quot;stuff&quot;,&#xa;            &quot;model_name&quot;: MODEL_NAME,&#xa;            &quot;temperature&quot;: 0.1,&#xa;            &quot;top_p&quot;: 0,&#xa;            &quot;repetition_penalty&quot;: 1&#xa;        },&#xa;        &quot;sources&quot;: {&#xa;            &quot;enabled&quot;: True,&#xa;            &quot;source_type&quot;: &quot;passage&quot;&#xa;        },&#xa;        &quot;inline_sources&quot;: {&#xa;            &quot;enabled&quot;: True,&#xa;            &quot;format&quot;: &quot;index_caret&quot;,&#xa;            &quot;source_type&quot;: &quot;passage&quot;&#xa;        }&#xa;    }&#xa;}&#xa;&#xa;&#xa;&#xa;&#xa;    chat = {&#xa;        &quot;request_type&quot;: &quot;chat&quot;,&#xa;        &quot;request&quot;: {&#xa;            &quot;messages&quot;: [&#xa;            {&#xa;                &quot;role&quot;: &quot;user&quot;,&#xa;                &quot;content&quot;: user.variables.get(&#39;IDP_question&#39;, &#39;&#39;),&#xa;            }&#xa;        ],&#xa;        }&#xa;    }&#xa;&#xa;&#xa;    request_body = {&#xa;        &quot;meta&quot;: {&quot;external_uuid&quot;: external_uuid, &quot;source_uuid&quot;: SOURCE_ID},&#xa;        &quot;message&quot;: chat,&#xa;        &quot;path&quot;: &quot;/predict&quot;,&#xa;        &quot;timeout&quot;: 600,&#xa;        &quot;configuration&quot;: search_config&#xa;    }&#xa;&#xa;&#xa;    try:&#xa;        log(f&quot;ПОПЫТКА ОТПРАВИТЬ ЗАПРОС НА УНИВЕРСАЛЬНЫЙ СКИЛЛ IDP {uri}, {str(HEADERS)}, {str(request_body)}&quot;)&#xa;        response = requests.post(&#xa;            uri,&#xa;            headers=HEADERS,&#xa;            json=request_body,&#xa;            verify=True&#xa;        )&#xa;&#xa;&#xa;        ## Замена численных источников на названия документов&#xa;&#xa;&#xa;        revert_replacements = {&#xa;            &#39;_SPACE_&#39;: &#39; &#39;,&#xa;            &#39;_COMMA_&#39;: &#39;,&#39;,&#xa;            &#39;_DOT_&#39;: &#39;.&#39;,&#xa;            &#39;_EXCLAMATIONMARK_&#39;: &#39;!&#39;,&#xa;            &#39;_QUESTIONMARK_&#39;: &#39;?&#39;,&#xa;            &#39;_COLON_&#39;: &#39;:&#39;,&#xa;            &#39;_SEMICOLON_&#39;: &#39;;&#39;,&#xa;            &#39;_HYPHEN_&#39;: &#39;-&#39;,&#xa;            &#39;_UNDERSCORE_&#39;: &#39;_&#39;,&#xa;            &#39;_LEFTPARENTHESIS_&#39;: &#39;(&#39;,&#xa;            &#39;_RIGHTPARENTHESIS_&#39;: &#39;)&#39;,&#xa;            &#39;_LEFTBRACKET_&#39;: &#39;[&#39;,&#xa;            &#39;_RIGHTBRACKET_&#39;: &#39;]&#39;,&#xa;            &#39;_LEFTBRACE_&#39;: &#39;{&#39;,&#xa;            &#39;_RIGHTBRACE_&#39;: &#39;}&#39;,&#xa;            &#39;_APOSTROPHE_&#39;: &quot;&#39;&quot;,&#xa;            &#39;_QUOTATIONMARK_&#39;: &#39;&quot;&#39;,&#xa;            &#39;_SLASH_&#39;: &#39;/&#39;,&#xa;            &#39;_BACKSLASH_&#39;: &#39;\\&#39;,&#xa;            &#39;_VERTICALBAR_&#39;: &#39;|&#39;,&#xa;            &#39;_ATSIGN_&#39;: &#39;@&#39;,&#xa;            &#39;_HASHTAG_&#39;: &#39;#&#39;,&#xa;            &#39;_DOLLARSIGN_&#39;: &#39;$&#39;,&#xa;            &#39;_PERCENTSIGN_&#39;: &#39;%&#39;,&#xa;            &#39;_CARET_&#39;: &#39;^&#39;,&#xa;            &#39;_AMPERSAND_&#39;: &#39;&amp;&#39;,&#xa;            &#39;_ASTERISK_&#39;: &#39;*&#39;,&#xa;            &#39;_PLUSSIGN_&#39;: &#39;+&#39;,&#xa;            &#39;_EQUALSIGN_&#39;: &#39;=&#39;,&#xa;            &#39;_LESSTHAN_&#39;: &#39;&lt;&#39;,&#xa;            &#39;_GREATERTHAN_&#39;: &#39;&gt;&#39;,&#xa;            &#39;_GRAVEACCENT_&#39;: &#39;`&#39;,&#xa;            &#39;_TILDE_&#39;: &#39;~&#39;,&#xa;            &#39;_NUMBERSYMB_&#39;: &#39;№&#39;,&#xa;        }&#xa;&#xa;&#xa;        pattern = re.compile(&#39;|&#39;.join(re.escape(char) for char in revert_replacements.keys()))&#xa;&#xa;&#xa;        def replacer(match):&#xa;            return revert_replacements[match.group(0)]&#xa;&#xa;&#xa;        response_clean = response.json()[&#39;result&#39;][&#39;response&#39;][&#39;messages&#39;][-1]&#xa;        server_answer_content = response_clean[&#39;content&#39;]&#xa;        # inline_sources = response_clean[&#39;faq_sources&#39;]&#xa;        # for i in range(len(inline_sources)):&#xa;        #     replace_on_raw = inline_sources[i][&#39;metadata&#39;][&#39;tags&#39;][0]&#xa;        #     replace_on = pattern.sub(replacer, replace_on_raw)[1:]&#xa;        #     server_answer_content = server_answer_content.replace(f&#39;[^{i+1}^]&#39;, f&quot;[{replace_on}]&quot;)&#xa;&#xa;&#xa;        inline_sources = response.json()[&#39;result&#39;][&#39;response&#39;][&#39;messages&#39;][-1][&#39;inline_sources&#39;]&#xa;        for i, inl_src in enumerate(inline_sources):&#xa;            replace_on = &quot;&quot;&#xa;            if inl_src[&#39;source_type&#39;] == &#39;faq&#39;:&#xa;                replace_on_raw = inl_src[&#39;source&#39;][&#39;metadata&#39;][&#39;tags&#39;][0]&#xa;                replace_on = &#39;[&#39; + pattern.sub(replacer, replace_on_raw)[1:] + &#39;]&#39;&#xa;            elif inl_src[&#39;source_type&#39;] == &#39;passage&#39;:&#xa;                path_elements = inl_src[&#39;source&#39;][&#39;metadata&#39;][&#39;breadcrumbs&#39;].split(&#39;/&#39;)&#xa;                if len(path_elements) &gt; 1:&#xa;                    replace_on = &#39;[&#39; + path_elements[-2] + &#39;]&#39;&#xa;            server_answer_content = server_answer_content.replace(f&#39;[^{i+1}^]&#39;, f&quot;{replace_on}&quot;)&#xa;&#xa;&#xa;&#xa;&#xa;        log(f&quot;ПОЛУЧЕННЫЙ ОТВЕТ С IDP {server_answer_content}&quot;)&#xa;        user.variables.set(&#39;IDP_answer&#39;, server_answer_content)&#xa;        log(f&quot;Успешный запрос к {uri}. Ответ обработан.&quot;, level=&quot;INFO&quot;)&#xa;        log(f&quot;ПОЛУЧЕННЫЙ ОТВЕТ С IDP {server_answer_content}&quot;)&#xa;        user.variables.set(&#39;IDP_answer&#39;, server_answer_content)&#xa;        log(f&quot;Успешный запрос к {uri}. Ответ обработан.&quot;, level=&quot;INFO&quot;)&#xa;&#xa;&#xa;    except requests.RequestException as e:&#xa;        user.variables.set(&#39;IDP_answer&#39;, &#39;Ошибка при обработке запроса&#39;)&#xa;        log(f&quot;Ответ от IDP: {response.text}&quot;, level=&quot;INFO&quot;)&#xa;        log(f&quot;Ошибка запроса к {uri}: {str(e)}&quot;, level=&quot;ERROR&quot;)&#xa;    except (KeyError, IndexError, ValueError) as e:&#xa;        user.variables.set(&#39;IDP_answer&#39;, &#39;Ошибка при обработке ответа&#39;)&#xa;        log(f&quot;Ответ от IDP: {response.text}&quot;, level=&quot;INFO&quot;)&#xa;        log(f&quot;Ошибка обработки ответа: {str(e)}&quot;, level=&quot;ERROR&quot;)&#xa;&#xa;&#xa;if __name__ == &#39;__main__&#39;:&#xa;    questions = [&quot;Какие манипуляции с долгом возможны в отчетности?&quot;,&#xa;&quot;По какому участнику сделки требуется построение прогноза движения денежных средств при установлении ИР на Консолидированную Группу?&quot;,&#xa;&quot;На какой срок строятся будущие денежные потоки?&quot;,&#xa;&quot;Как определить, что деятельность носит сезонный характер?&quot;,&#xa;&quot;Можно ли строить будущие денежные потоки в иностранной валюте?&quot;,&#xa;&quot;Относится ли к прочим изменениям увеличение срока действующей банковской гарантии в пределах срока лимита ЕДБГ без увеличения срока действия лимита ЕДБГ?&quot;,&#xa;&quot;Требуется ли проверка Fraud-риска по техническим изменениям?&quot;,&#xa;&quot;Является ли прочим изменением продление периода выборки по сделке УФН?&quot;,&#xa;&quot;Финансирует ли Банк казино?&quot;,&#xa;&quot;Особенности финансирования по договорам простого товарищества&quot;,&#xa;&quot;Может ли банк финансировать некоммерческие организации?&quot;]&#xa;    for question in questions:&#xa;        run_request(question)&#xa;Это скрипт для отправки запроса в сервис.&#xa;Нужно сделать аналогичный, для отправки на такой API:&#xa;@router.post(&#xa;    &quot;/idp_search&quot;,&#xa;    status_code=status.HTTP_200_OK,&#xa;    response_model=schemas.IDPSearchResponse,&#xa;    responses={&#xa;        status.HTTP_424_FAILED_DEPENDENCY: {&#xa;            &quot;description&quot;: &quot;Ошибка при взаимодействии с IDP системой&quot;,&#xa;            &quot;model&quot;: schemas.IDPErrorResponse,&#xa;        },&#xa;    },&#xa;)&#xa;async def idp_search(&#xa;    request: schemas.IDPSearchRequest,&#xa;    headers: dict = Depends(common_headers),&#xa;):&#xa;    &quot;&quot;&quot;&#xa;    Поиск информации в IDP (Intelligent Data Platform).&#xa;    &#xa;    Этот endpoint позволяет выполнить поиск информации в корпоративной базе знаний &#xa;    через IDP API. Система автоматически обрабатывает запрос, выполняет поиск&#xa;    по документам и возвращает ответ с ссылками на источники.&#xa;    &quot;&quot;&quot;&#xa;    logger.info(f&quot;Processing IDP search request: &#39;{request.question[:100]}...&#39;&quot;)&#xa;    &#xa;    # Отправляем запрос через IDP сервис&#xa;    answer, response_time, error_msg, external_uuid = await idp_service.search(request.question)&#xa;    &#xa;    if error_msg:&#xa;        logger.error(f&quot;IDP search failed: {error_msg}&quot;)&#xa;        return JSONResponse(&#xa;            status_code=status.HTTP_424_FAILED_DEPENDENCY,&#xa;            content=schemas.IDPErrorResponse(&#xa;                error_description=f&quot;Ошибка при обращении к IDP: {error_msg}&quot;,&#xa;                error_code=error_msg,&#xa;                response_time=response_time,&#xa;            ).model_dump(),&#xa;        )&#xa;    &#xa;    logger.info(f&quot;IDP search completed in {response_time:.2f}s&quot;)&#xa;    return schemas.IDPSearchResponse(&#xa;        answer=answer,&#xa;        response_time=response_time,&#xa;        external_uuid=external_uuid,&#xa;    )&#xa;&#xa;&#xa;# IDP Schemas&#xa;&#xa;&#xa;class IDPSearchRequest(BaseModel):&#xa;    &quot;&quot;&quot;Тело запроса для IDP поиска&quot;&quot;&quot;&#xa;&#xa;&#xa;    question: str = Field(&#xa;        description=&quot;Вопрос для поиска в IDP (Intelligent Data Platform)&quot;,&#xa;        min_length=4,&#xa;        examples=[&#xa;            &quot;Какие манипуляции с долгом возможны в отчетности?&quot;,&#xa;            &quot;По какому участнику сделки требуется построение прогноза движения денежных средств?&quot;,&#xa;            &quot;На какой срок строятся будущие денежные потоки?&quot;&#xa;        ],&#xa;    )&#xa;&#xa;&#xa;&#xa;&#xa;class IDPSearchResponse(BaseModel):&#xa;    &quot;&quot;&quot;Ответ для IDP поиска&quot;&quot;&quot;&#xa;&#xa;&#xa;    answer: str = Field(&#xa;        description=&quot;Ответ от IDP с информацией из базы знаний и ссылками на источники&quot;,&#xa;        examples=[&#xa;            &quot;Согласно документации [Руководство по кредитным операциям], манипуляции с долгом включают реструктуризацию, рефинансирование и списание безнадежной задолженности.&quot;&#xa;        ],&#xa;    )&#xa;    response_time: float = Field(&#xa;        description=&quot;Время ответа в секундах&quot;,&#xa;        examples=[3.24],&#xa;    )&#xa;    external_uuid: str = Field(&#xa;        description=&quot;Уникальный идентификатор запроса&quot;,&#xa;        examples=[&quot;550e8400-e29b-41d4-a716-446655440000&quot;],&#xa;    )&#xa;&#xa;&#xa;&#xa;&#xa;class IDPErrorResponse(BaseModel):&#xa;    &quot;&quot;&quot;Ошибка при работе с IDP&quot;&quot;&quot;&#xa;&#xa;&#xa;    error_description: str = Field(&#xa;        description=&quot;Описание ошибки при обращении к IDP&quot;,&#xa;        examples=[&#xa;            &quot;Ошибка при обработке запроса к IDP&quot;,&#xa;            &quot;Timeout при обращении к IDP API&quot;,&#xa;            &quot;Ошибка при обработке ответа от IDP&quot;&#xa;        ],&#xa;    )&#xa;    error_code: str = Field(&#xa;        description=&quot;Код ошибки&quot;,&#xa;        examples=[&quot;IDP_REQUEST_ERROR&quot;, &quot;IDP_TIMEOUT_ERROR&quot;, &quot;IDP_RESPONSE_ERROR&quot;],&#xa;    )&#xa;    response_time: Optional[float] = Field(&#xa;        description=&quot;Время ответа в секундах (если доступно)&quot;,&#xa;        examples=[5.0],&#xa;        default=None,&#xa;    )" id="tjXOWgZFEl35QNcsJMh5-1">
          <mxCell style="text;whiteSpace=wrap;" vertex="1" parent="1">
            <mxGeometry x="1030" y="330" width="560" height="5090" as="geometry" />
          </mxCell>
        </UserObject>
      </root>
    </mxGraphModel>
  </diagram>
</mxfile>
